<?xml version="1.0" encoding="utf-8"?>
<!-- Generator: Adobe Illustrator 27.5.0, SVG Export Plug-In . SVG Version: 6.00 Build 0)  -->
<svg version="1.1" xmlns="http://www.w3.org/2000/svg" xmlns:xlink="http://www.w3.org/1999/xlink" x="0px" y="0px"
	 viewBox="0 0 3710 3710" style="enable-background:new 0 0 3710 3710;" xml:space="preserve">
<g id="Background">
	<g>
		<g>
			<rect style="fill:#FFFFFF;" width="3710" height="3710"/>
		</g>
	</g>
</g>
<g id="Illustration">
	<g>
		<linearGradient id="SVGID_1_" gradientUnits="userSpaceOnUse" x1="3602.5361" y1="4052.4619" x2="1118.7277" y2="967.7278">
			<stop  offset="0" style="stop-color:#DAE3FE"/>
			<stop  offset="1" style="stop-color:#E9EFFD"/>
		</linearGradient>
		<path style="fill:url(#SVGID_1_);" d="M2919.225,2835.954c-57.052,60.062-111.034,98.795-153.685,129.397
			c-501.345,359.721-1094.57,254.864-1220.647,229.257c-186.176-37.813-546.05-110.906-806.233-416.875
			c-393.635-462.906-332.34-1192.202-27.01-1673.621c55.849-88.06,350.863-576.811,950.477-655.191
			c362.88-47.435,785.881,48.236,1092.208,304.876C3397.34,1292.508,3351.565,2380.8,2919.225,2835.954z"/>
		<g>
			<g>
				<path style="fill:#91B3FA;" d="M1744.157,2421.102c3.175,0.789,21.572,5.358,38.1-4.01
					c99.464-56.375-190.603-435.104-116.306-884.322c30.283-183.098,108.071-299.141,56.147-475.248
					c-9.428-31.977-39.588-130.166-124.326-216.569c-53.306-54.352-88.312-63.362-155.074-106.947
					c-209.675-136.885-221.278-281.019-304.8-275.39c-93.228,6.283-202.594,194.204-165.769,342.232
					c40.538,162.951,232.982,176.064,245.98,320.842c10.11,112.618-103.617,134.883-106.947,272.716
					c-4.422,182.963,191.658,322.335,216.568,339.558c111.109,76.824,140.424,33.737,213.895,93.58
					C1741.296,1990.174,1627.64,2392.169,1744.157,2421.102z"/>
				<path style="fill:#BDD0FB;" d="M1251.536,813.981c15.636,8.041,30.672,16.974,45.287,26.658
					c14.646,9.619,28.919,19.844,42.715,30.706c13.813,10.839,27.312,22.128,40.273,34.048c12.85,12.026,25.559,24.273,37.524,37.27
					c6.136,6.359,11.719,13.218,17.61,19.816c5.542,6.891,11.352,13.581,16.675,20.664c5.385,7.034,10.808,14.052,15.827,21.376
					c2.537,3.64,5.177,7.214,7.631,10.915l7.211,11.213c4.928,7.402,9.138,15.259,13.699,22.904
					c4.415,7.731,8.385,15.72,12.596,23.579c3.753,8.092,7.738,16.087,11.281,24.285l5.135,12.384
					c1.745,4.116,3.442,8.254,4.826,12.513c12.176,33.641,20.659,68.713,24.955,104.325l1.602,13.359l1.157,12.968l2.299,25.921
					c1.479,17.288,3.26,34.538,4.875,51.81c6.708,69.054,14.685,137.956,23.822,206.664
					c18.466,137.431,42.439,273.875,80.145,407.378c18.02,67.615,31.799,136.014,43.769,204.643
					c11.887,68.647,21.741,137.576,29.376,206.779l-3.977,0.525c-11.388-68.545-24.45-136.82-38.665-204.752
					c-7.25-33.937-14.815-67.799-23.055-101.458c-8.198-33.664-16.872-67.206-26.795-100.296
					c-20.608-66.414-37.616-134.589-52.113-202.806c-14.176-68.383-25.722-137.234-35.829-206.237
					c-10.124-69.012-17.958-138.291-25.126-207.592c-1.693-17.335-3.553-34.66-5.109-52.002l-2.415-26.012l-1.211-12.997
					l-1.403-12.541c-3.738-33.439-11.404-66.436-22.604-98.26c-2.592-8.027-5.939-15.795-8.865-23.72
					c-3.144-7.839-6.73-15.507-10.074-23.28c-3.811-7.559-7.372-15.251-11.383-22.72c-4.16-7.389-7.956-14.989-12.487-22.179
					c-17.266-29.247-36.878-57.311-59.009-83.424c-10.811-13.277-22.427-25.904-34.231-38.376
					c-11.999-12.28-24.248-24.368-36.948-36.016c-25.545-23.067-52.319-45.185-80.959-64.539L1251.536,813.981z"/>
			</g>
			<g>
				<path style="fill:#7D97F4;" d="M1827.717,2700.527c16.494,5.281,41.06,3.675,54.133-9.955
					c50.456-52.602-132.268-219.669-222.127-485.935c-104.041-308.294,6.045-483.97-143.741-611.257
					c-72.036-61.216-121.004-40.56-191.99-121.179c-98.853-112.268-52.432-207.457-130.942-294.875
					c-90.294-100.537-292.041-130.9-410.667-44.8c-159.519,115.78-125.923,411.088-6.167,546.107
					c77.786,87.7,202.005,119.14,193.399,149.295c-8.214,28.78-118.493-9.937-167.321,43.797
					c-63.943,70.366-8.308,283.657,114.053,340.125c112.633,51.979,270.279-34.24,284.17-1.635
					c5.465,12.828-18.913,26.226-16.926,43.327c3.546,30.516,89.474,59.267,382.847,70.211
					c85.159,35.434,129.032,82.073,153.439,118.883C1791.886,2551.241,1764.802,2680.385,1827.717,2700.527z"/>
				<path style="fill:#91B3FA;" d="M973.385,1336.338c13.594,65.758,33.343,129.881,60.478,190.577
					c27.027,60.762,61.411,117.635,102.528,169.336c20.642,25.809,42.655,50.588,65.552,74.676
					c11.704,11.865,23.171,23.882,35.182,35.529c11.792,11.8,23.725,23.554,35.723,35.252l72.256,70.437l17.986,17.792
					l17.719,18.109c11.881,11.998,23.461,24.329,35.104,36.588c23.281,24.515,45.897,49.658,68.232,75.035
					c11.05,12.79,22.185,25.506,32.876,38.6l16.185,19.51l15.904,19.74l15.853,19.779l15.518,20.045l15.492,20.06l15.119,20.349
					l14.998,20.435l14.579,20.743c9.712,13.83,19.494,27.604,28.738,41.763l14.062,21.091l7.028,10.542l6.762,10.724
					c8.882,14.386,17.926,28.658,26.661,43.121l25.486,43.821c8.399,14.656,16.121,29.712,24.096,44.594
					c31.161,59.941,58.877,121.72,80.843,185.447l-3.482,1.345c-27.31-61.411-58.335-120.829-92.318-178.466l-12.978-21.477
					c-4.365-7.133-8.387-14.458-13.016-21.434l-27.069-42.234c-18.738-27.71-37.431-55.415-57.041-82.5
					c-9.564-13.705-19.671-27.031-29.697-40.403l-15.045-20.052l-15.46-19.742l-15.339-19.828l-15.696-19.55l-15.716-19.531
					l-16.047-19.264c-42.953-51.228-87.157-101.394-133.364-149.675c-46.211-48.261-94.051-95.01-141.967-142.401
					c-11.956-11.882-23.948-23.733-35.725-35.897c-11.85-12.031-23.313-24.6-34.929-36.938
					c-22.797-25.211-45.044-51.092-65.538-78.473c-5.083-6.869-9.878-13.971-14.823-20.942l-7.339-10.513l-6.881-10.838
					c-4.528-7.259-9.291-14.363-13.613-21.74l-12.667-22.302c-4.398-7.33-7.979-15.104-11.801-22.739l-5.669-11.479
					c-1.901-3.819-3.814-7.629-5.432-11.579c-6.705-15.683-13.795-31.17-19.749-47.112c-23.95-63.683-39.756-130.215-46.254-197.376
					L973.385,1336.338z"/>
			</g>
		</g>
		<g>
			
				<linearGradient id="SVGID_00000149353045049056424250000004090754181918616192_" gradientUnits="userSpaceOnUse" x1="2403.2378" y1="608.5379" x2="202.4993" y2="3499.1465" gradientTransform="matrix(1 0.0089 -0.0089 1 645.3589 169.3127)">
				<stop  offset="0" style="stop-color:#09005D"/>
				<stop  offset="1" style="stop-color:#1A0F91"/>
			</linearGradient>
			<path style="fill:url(#SVGID_00000149353045049056424250000004090754181918616192_);" d="M1465.265,742.639l1388.34,12.424
				c76.594,0.685,139.214,61.274,142.424,137.804l84.465,2013.751c2.512,59.887-45.061,109.957-104.997,110.51l-1591.472,14.68
				c-56.319,0.52-102.112-45.26-101.608-101.579l18.129-2025.796C1301.354,814.271,1375.1,741.832,1465.265,742.639z"/>
			<path style="fill:#FFFFFF;" d="M1338.777,2536.747c-0.01,0-0.02,0-0.03,0c-1.861-0.016-3.353-1.537-3.337-3.396l0.388-43.532
				c0.016-1.849,1.522-3.337,3.366-3.337c0.01,0,0.02,0,0.03,0c1.861,0.017,3.353,1.537,3.337,3.396l-0.388,43.532
				C1342.127,2535.26,1340.621,2536.747,1338.777,2536.747z"/>
			<g>
				<path style="fill:#7D97F4;" d="M1469.68,726.361c189.361,27.406,840.601,112.758,1379.997,76.204
					c24.599-1.667,45.764,17.149,46.854,41.779l89.361,2022.768c1.225,27.735-20.156,51.252-47.884,52.645
					c-226.824,11.387-1160.928,54.895-1493.63,17.034c-20.249-2.304-35.481-19.506-35.419-39.885l6.512-2123.73
					C1415.559,744.328,1441.129,722.229,1469.68,726.361z"/>
				<path style="fill:#BDD0FB;" d="M1489.518,778.989c182.23,26.376,808.948,108.513,1328.033,73.335
					c23.672-1.604,44.042,16.503,45.088,40.206l85.996,1946.6c1.18,26.691-19.396,49.322-46.08,50.662
					c-218.283,10.958-1117.213,52.828-1437.388,16.393c-19.486-2.217-34.145-18.771-34.084-38.384l6.266-2043.759
					C1437.435,796.28,1462.041,775.013,1489.518,778.989z"/>
				<g style="opacity:0.6;">
					<path style="fill:#FFFFFF;" d="M2756.217,1236.901c7.405,0.066,13.119-5.929,12.697-13.322l-0.064-1.118
						c-0.422-7.394-6.825-13.545-14.23-13.67l-1178.577-19.838c-7.405-0.125-9.731,4.547-5.17,10.381l12.93,16.54
						c4.561,5.834,14.352,10.662,21.757,10.729L2756.217,1236.901z"/>
				</g>
				<g style="opacity:0.6;">
					<path style="fill:#FFFFFF;" d="M1575.348,1266.717c-7.405-0.125-9.731,4.547-5.17,10.381l12.93,16.541
						c4.561,5.834,14.351,10.662,21.757,10.729l1150.657,10.297c7.405,0.066,13.119-5.929,12.697-13.322l-0.064-1.118
						c-0.422-7.394-6.825-13.545-14.23-13.67L1575.348,1266.717z"/>
				</g>
				<g>
					<path style="fill:#FFFFFF;" d="M1657.19,1476.817c-0.089,0-0.174,0-0.263-0.002l-44.368-0.823
						c-7.183-0.133-13.074-5.187-13.701-11.757l-3.57-37.263c-0.253-2.641,0.585-5.237,2.357-7.308
						c1.946-2.271,4.855-3.68,7.981-3.864c3.738-0.222,8.885-0.615,14.546-1.047c12.39-0.943,26.433-2.013,34.714-2.043
						c0.02,0,0.036,0,0.053,0c6.65,0,12.367,4.125,13.908,10.048c2.295,8.8,1.946,25.098,1.344,42.445
						C1669.967,1471.656,1664.162,1476.817,1657.19,1476.817z M1606.026,1422.519c-1.315,0.079-2.505,0.635-3.267,1.524
						c-0.408,0.475-0.871,1.256-0.772,2.288l3.57,37.263c0.299,3.11,3.429,5.598,7.127,5.666l44.368,0.823
						c3.32,0.176,6.312-2.227,6.413-5.113c0.437-12.717,1.104-31.934-1.134-40.514c-0.756-2.909-3.863-5.013-7.393-5.013
						c-0.01,0-0.02,0-0.03,0c-8.037,0.028-22.557,1.136-34.227,2.025C1614.978,1421.901,1609.79,1422.295,1606.026,1422.519
						L1606.026,1422.519z"/>
					<g style="opacity:0.6;">
						<path style="fill:#FFFFFF;" d="M1706.194,1437.018c-7.405-0.088-12.193,4.84-10.639,10.952
							c1.553,6.112,8.883,11.103,16.289,11.092l390.088-0.591c7.406-0.011,13.417-3.745,13.357-8.298
							c-0.059-4.553-6.166-8.35-13.571-8.438L1706.194,1437.018z"/>
					</g>
					
						<linearGradient id="SVGID_00000164473960356215250810000011900897715433429397_" gradientUnits="userSpaceOnUse" x1="1687.7992" y1="147.1436" x2="1653.7141" y2="965.2021">
						<stop  offset="0" style="stop-color:#FF928E"/>
						<stop  offset="1" style="stop-color:#FE7062"/>
					</linearGradient>
					<path style="fill:url(#SVGID_00000164473960356215250810000011900897715433429397_);" d="M1606.794,1420.723L1606.794,1420.723
						c4.191-2.409,9.544-0.901,11.861,3.342l10.9,19.955c1.091,1.998,3.992,1.898,4.944-0.17l28.022-60.921
						c1.397-3.039,5.932-1.967,5.852,1.377c-0.448,18.707-5.73,54.227-35.891,83.729c0,0-16.417-6.552-29.423-35.803
						C1601.18,1428.007,1602.785,1423.028,1606.794,1420.723z"/>
					<path style="fill:#FFFFFF;" d="M1656.338,1571.911c-0.089,0-0.174,0-0.263-0.002l-44.365-0.823
						c-7.186-0.133-13.077-5.187-13.705-11.757l-3.57-37.263c-0.253-2.641,0.585-5.235,2.357-7.306
						c1.946-2.271,4.855-3.68,7.985-3.866l0,0c3.731-0.222,8.869-0.615,14.523-1.045c12.396-0.943,26.446-2.015,34.733-2.043
						c0.02,0,0.039,0,0.059,0c6.647,0,12.36,4.124,13.902,10.046c2.295,8.802,1.946,25.1,1.344,42.445
						C1669.116,1566.75,1663.311,1571.911,1656.338,1571.911z M1654.09,1514.538c-0.01,0-0.02,0-0.03,0
						c-8.044,0.028-22.574,1.134-34.247,2.023c-5.697,0.436-10.874,0.828-14.635,1.052l0,0c-1.315,0.079-2.508,0.634-3.271,1.525
						c-0.408,0.475-0.871,1.256-0.772,2.286l3.57,37.263c0.299,3.11,3.429,5.598,7.13,5.666l44.365,0.823
						c3.261,0.1,6.315-2.225,6.413-5.113c0.437-12.717,1.104-31.934-1.134-40.514
						C1660.724,1516.642,1657.617,1514.538,1654.09,1514.538z"/>
					<path style="opacity:0.6;fill:#FFFFFF;" d="M1609.816,1519.839c9.327-0.554,29.603-2.429,39.213-2.463
						c4.072-0.014,7.621,2.477,8.544,6.016c1.793,6.873,1.425,20.538,0.99,33.149c-0.131,3.777-3.627,6.761-7.863,6.683
						l-35.453-0.658c-4.36-0.081-7.954-3.086-8.325-6.962l-2.851-29.777C1603.776,1522.747,1606.359,1520.044,1609.816,1519.839z"/>
					<g style="opacity:0.6;">
						<path style="fill:#FFFFFF;" d="M1705.342,1532.113c-7.405-0.088-12.193,4.84-10.639,10.952s8.884,11.103,16.289,11.092
							l390.087-0.59c7.406-0.011,13.417-3.745,13.358-8.298s-6.166-8.35-13.571-8.438L1705.342,1532.113z"/>
					</g>
					<path style="fill:#FFFFFF;" d="M1655.487,1667.005c-0.089,0-0.174,0-0.263-0.002l-44.365-0.822
						c-7.186-0.135-13.077-5.189-13.705-11.759l-3.567-37.261c-0.256-2.638,0.582-5.233,2.354-7.306
						c1.946-2.273,4.855-3.682,7.985-3.867l0,0c3.734-0.222,8.879-0.615,14.536-1.045c12.393-0.945,26.436-2.015,34.72-2.045
						c0.02,0,0.036,0,0.053,0c6.65,0,12.367,4.125,13.908,10.047c2.295,8.79,1.946,25.094,1.344,42.445
						C1668.271,1661.844,1662.463,1667.005,1655.487,1667.005z M1653.235,1609.631c-0.01,0-0.02,0-0.03,0
						c-8.037,0.028-22.561,1.136-34.23,2.025c-5.703,0.434-10.884,0.828-14.648,1.052l0,0c-1.318,0.079-2.508,0.634-3.271,1.525
						c-0.404,0.473-0.868,1.256-0.769,2.286l3.567,37.263c0.302,3.161,3.37,5.598,7.13,5.667l44.365,0.822
						c0.046,0.002,0.092,0.002,0.141,0.002c3.373,0,6.173-2.27,6.272-5.113c0.437-12.722,1.104-31.946-1.134-40.516
						C1659.872,1611.735,1656.762,1609.631,1653.235,1609.631z"/>
					<path style="opacity:0.6;fill:#FFFFFF;" d="M1608.965,1614.934c9.327-0.554,29.603-2.429,39.213-2.463
						c4.072-0.014,7.62,2.477,8.544,6.016c1.793,6.873,1.425,20.538,0.99,33.149c-0.13,3.777-3.626,6.761-7.863,6.682l-35.454-0.658
						c-4.36-0.081-7.953-3.086-8.324-6.961l-2.851-29.778C1602.925,1617.841,1605.508,1615.139,1608.965,1614.934z"/>
					<g style="opacity:0.6;">
						<path style="fill:#FFFFFF;" d="M1704.491,1627.208c-7.405-0.088-12.193,4.84-10.639,10.952
							c1.554,6.112,8.884,11.103,16.289,11.092l390.087-0.59c7.406-0.011,13.417-3.745,13.358-8.298
							c-0.059-4.553-6.166-8.35-13.571-8.438L1704.491,1627.208z"/>
					</g>
					<path style="fill:#FFFFFF;" d="M1654.635,1762.1c-0.089,0-0.174,0-0.263-0.002l-44.365-0.823
						c-7.186-0.133-13.077-5.187-13.705-11.757l-3.567-37.261c-0.253-2.641,0.585-5.238,2.357-7.309
						c1.946-2.271,4.855-3.68,7.982-3.864c3.734-0.222,8.872-0.615,14.526-1.045c12.396-0.943,26.446-2.014,34.73-2.043
						c0.02,0,0.039,0,0.059,0c6.647,0,12.36,4.124,13.902,10.046c2.295,8.79,1.946,25.093,1.344,42.445
						C1667.416,1756.939,1661.611,1762.1,1654.635,1762.1z M1652.387,1704.727c-0.01,0-0.02,0-0.029,0
						c-8.044,0.028-22.571,1.136-34.244,2.025c-5.7,0.434-10.878,0.827-14.638,1.05l0,0c-1.315,0.079-2.505,0.634-3.268,1.524
						c-0.408,0.475-0.871,1.257-0.772,2.29l3.567,37.261c0.302,3.161,3.366,5.597,7.13,5.666l44.365,0.823
						c3.366,0.178,6.315-2.227,6.413-5.112c0.437-12.722,1.104-31.946-1.134-40.516
						C1659.021,1706.831,1655.914,1704.727,1652.387,1704.727z"/>
					<path style="opacity:0.6;fill:#FFFFFF;" d="M1608.115,1710.028c9.326-0.554,29.603-2.429,39.213-2.463
						c4.072-0.014,7.62,2.478,8.543,6.016c1.793,6.873,1.426,20.537,0.991,33.149c-0.13,3.777-3.627,6.762-7.863,6.683
						l-35.453-0.658c-4.36-0.081-7.953-3.087-8.324-6.963l-2.851-29.777C1602.074,1712.936,1604.657,1710.233,1608.115,1710.028z"/>
					<g style="opacity:0.6;">
						<path style="fill:#FFFFFF;" d="M1703.641,1722.302c-7.405-0.088-12.193,4.84-10.639,10.951s8.884,11.103,16.289,11.092
							l390.087-0.59c7.406-0.011,13.417-3.745,13.358-8.298c-0.059-4.553-6.166-8.35-13.571-8.438L1703.641,1722.302z"/>
					</g>
				</g>
				<g>
					<path style="fill:#FFFFFF;" d="M2298.144,1471.836c-0.089,0-0.174,0-0.263-0.002l-44.365-0.823
						c-7.179-0.133-13.073-5.186-13.705-11.755l-3.567-37.265c-0.253-2.641,0.585-5.237,2.357-7.308
						c1.946-2.27,4.855-3.678,7.981-3.864l0,0c3.734-0.222,8.879-0.615,14.536-1.045c12.393-0.945,26.436-2.015,34.72-2.045
						c0.02,0,0.036,0,0.052,0c6.65,0,12.367,4.125,13.909,10.047c2.294,8.79,1.946,25.094,1.344,42.445
						C2310.928,1466.675,2305.119,1471.836,2298.144,1471.836z M2295.892,1414.462c-0.01,0-0.02,0-0.03,0
						c-8.037,0.028-22.561,1.136-34.23,2.025c-5.703,0.434-10.884,0.828-14.648,1.052l0,0c-1.315,0.079-2.505,0.635-3.268,1.524
						c-0.408,0.475-0.871,1.256-0.772,2.288l3.567,37.263c0.306,3.161,3.369,5.597,7.13,5.666l44.365,0.823
						c0.046,0.002,0.092,0.002,0.141,0.002c3.373,0,6.174-2.27,6.272-5.113c0.437-12.722,1.104-31.946-1.134-40.516
						C2302.529,1416.566,2299.419,1414.462,2295.892,1414.462z"/>
					<g style="opacity:0.6;">
						<path style="fill:#FFFFFF;" d="M2347.149,1432.038c-7.405-0.088-12.193,4.84-10.639,10.951
							c1.553,6.112,8.884,11.103,16.289,11.092l390.087-0.59c7.406-0.011,13.417-3.745,13.358-8.298s-6.166-8.35-13.571-8.438
							L2347.149,1432.038z"/>
					</g>
					<path style="fill:#FFFFFF;" d="M2297.292,1566.931c-0.089,0-0.174,0-0.263-0.002l-44.365-0.823
						c-7.179-0.133-13.073-5.186-13.705-11.755l-3.567-37.265c-0.253-2.641,0.585-5.237,2.357-7.308
						c1.946-2.271,4.855-3.68,7.982-3.864c3.738-0.224,8.885-0.615,14.546-1.047c12.386-0.943,26.43-2.013,34.71-2.043
						c0.02,0,0.036,0,0.052,0c6.65,0,12.367,4.125,13.908,10.048c2.291,8.779,1.946,25.087,1.348,42.444
						C2310.073,1561.77,2304.264,1566.931,2297.292,1566.931z M2246.132,1512.633c-1.315,0.079-2.505,0.635-3.268,1.524
						c-0.407,0.475-0.871,1.256-0.772,2.288l3.567,37.263c0.306,3.161,3.37,5.597,7.13,5.666l44.365,0.823
						c0.046,0.002,0.092,0.002,0.141,0.002c3.373,0,6.177-2.27,6.275-5.115c0.437-12.725,1.098-31.956-1.137-40.514
						c-0.756-2.917-3.816-5.151-7.423-5.013c-8.037,0.028-22.554,1.136-34.221,2.023
						C2255.083,1512.015,2249.896,1512.41,2246.132,1512.633L2246.132,1512.633z"/>
					<g style="opacity:0.6;">
						<path style="fill:#FFFFFF;" d="M2346.298,1527.133c-7.405-0.088-12.193,4.84-10.639,10.952
							c1.554,6.112,8.884,11.103,16.29,11.092l390.087-0.59c7.406-0.011,13.417-3.745,13.358-8.298
							c-0.059-4.553-6.166-8.35-13.571-8.438L2346.298,1527.133z"/>
					</g>
					<path style="fill:#FFFFFF;" d="M2296.444,1662.025c-0.089,0-0.174,0-0.263-0.002l-44.368-0.823
						c-7.183-0.133-13.073-5.187-13.701-11.757l-3.57-37.263c-0.253-2.641,0.585-5.237,2.357-7.308
						c1.946-2.271,4.855-3.68,7.981-3.864c3.738-0.222,8.879-0.615,14.536-1.045c12.39-0.943,26.436-2.013,34.72-2.043
						c0.02,0,0.04,0,0.059,0c6.644,0,12.357,4.122,13.905,10.043c2.288,8.784,1.943,25.09,1.345,42.447
						C2309.222,1656.864,2303.416,1662.025,2296.444,1662.025z M2245.281,1607.728c-1.315,0.079-2.505,0.635-3.268,1.524
						c-0.407,0.475-0.871,1.256-0.772,2.288l3.57,37.263c0.299,3.11,3.428,5.598,7.127,5.666l44.368,0.823
						c3.307,0.1,6.312-2.226,6.414-5.113c0.437-12.725,1.098-31.956-1.134-40.514c-0.759-2.908-3.866-5.011-7.393-5.011
						c-0.01,0-0.02,0-0.03,0c-8.041,0.028-22.567,1.134-34.237,2.023C2254.225,1607.11,2249.045,1607.504,2245.281,1607.728
						L2245.281,1607.728z"/>
					<g style="opacity:0.6;">
						<path style="fill:#FFFFFF;" d="M2345.447,1622.227c-7.405-0.088-12.193,4.84-10.639,10.952s8.884,11.103,16.289,11.092
							l390.087-0.59c7.406-0.011,13.417-3.745,13.358-8.298c-0.059-4.553-6.166-8.35-13.571-8.438L2345.447,1622.227z"/>
					</g>
					<path style="fill:#FFFFFF;" d="M2295.586,1757.121c-0.085,0-0.171,0-0.26-0.002l-44.365-0.824
						c-7.183-0.135-13.073-5.189-13.701-11.759l-3.57-37.261c-0.253-2.641,0.585-5.238,2.357-7.309
						c1.946-2.271,4.855-3.68,7.981-3.864c3.738-0.222,8.879-0.615,14.536-1.045c12.393-0.943,26.439-2.014,34.72-2.043
						c0.02,0,0.039,0,0.059,0c6.644,0,12.357,4.122,13.905,10.043c2.288,8.784,1.943,25.092,1.344,42.449
						C2308.37,1751.96,2302.562,1757.121,2295.586,1757.121z M2244.429,1702.822c-1.315,0.079-2.505,0.635-3.267,1.524
						c-0.408,0.475-0.871,1.257-0.772,2.29l3.57,37.261c0.302,3.161,3.366,5.598,7.127,5.667l44.365,0.823
						c3.461,0.064,6.318-2.232,6.417-5.113c0.437-12.725,1.098-31.957-1.134-40.516c-0.759-2.908-3.866-5.011-7.393-5.011
						c-0.01,0-0.02,0-0.03,0c-8.041,0.028-22.564,1.134-34.234,2.023C2253.374,1702.204,2248.193,1702.599,2244.429,1702.822
						L2244.429,1702.822z"/>
					<g style="opacity:0.6;">
						<path style="fill:#FFFFFF;" d="M2344.596,1717.323c-7.405-0.088-12.193,4.84-10.639,10.952
							c1.553,6.112,8.884,11.103,16.289,11.092l390.087-0.591c7.406-0.011,13.417-3.745,13.358-8.298
							c-0.059-4.552-6.166-8.35-13.571-8.438L2344.596,1717.323z"/>
					</g>
				</g>
				<g>
					<path style="fill:#FFFFFF;" d="M1667.633,1938.64c-0.089,0-0.174,0-0.263-0.002l-44.365-0.822
						c-7.186-0.135-13.077-5.189-13.705-11.759l-3.567-37.261c-0.256-2.638,0.582-5.233,2.354-7.304
						c1.946-2.273,4.855-3.683,7.985-3.869l0,0c3.731-0.222,8.869-0.615,14.523-1.045c12.396-0.943,26.446-2.015,34.737-2.043
						c0.017,0,0.036,0,0.056,0c6.647,0,12.36,4.124,13.902,10.046c2.295,8.79,1.946,25.094,1.344,42.447
						C1680.414,1933.479,1674.609,1938.64,1667.633,1938.64z M1665.385,1881.267c-0.01,0-0.02,0-0.029,0
						c-8.044,0.028-22.574,1.134-34.247,2.023c-5.697,0.436-10.874,0.828-14.635,1.052l0,0c-1.315,0.079-2.508,0.635-3.271,1.525
						c-0.404,0.475-0.868,1.256-0.769,2.286l3.567,37.263c0.302,3.161,3.37,5.598,7.13,5.667l44.365,0.822
						c0.046,0.002,0.092,0.002,0.141,0.002c3.373,0,6.173-2.268,6.272-5.112c0.437-12.723,1.104-31.947-1.134-40.517
						C1672.019,1883.371,1668.912,1881.267,1665.385,1881.267z"/>
					<g style="opacity:0.6;">
						<path style="fill:#FFFFFF;" d="M1716.638,1898.843c-7.405-0.088-12.193,4.84-10.639,10.952
							c1.554,6.112,8.884,11.103,16.289,11.092l390.087-0.591c7.406-0.011,13.417-3.745,13.358-8.298
							c-0.059-4.553-6.166-8.35-13.571-8.438L1716.638,1898.843z"/>
					</g>
					<path style="fill:#FFFFFF;" d="M1666.782,2033.736c-0.089,0-0.174,0-0.263-0.002l-44.365-0.823
						c-7.186-0.135-13.077-5.189-13.705-11.759l-3.567-37.261c-0.253-2.641,0.585-5.237,2.357-7.306
						c1.943-2.271,4.852-3.682,7.982-3.867l0,0c3.734-0.222,8.872-0.615,14.526-1.045c12.396-0.943,26.446-2.014,34.73-2.043
						c0.02,0,0.039,0,0.059,0c6.647,0,12.36,4.124,13.902,10.046c2.295,8.79,1.946,25.094,1.344,42.447
						C1679.563,2028.575,1673.757,2033.736,1666.782,2033.736z M1615.622,1979.437c-1.315,0.079-2.505,0.635-3.268,1.525
						c-0.408,0.475-0.871,1.256-0.772,2.288l3.567,37.261c0.302,3.161,3.37,5.598,7.13,5.667l44.365,0.823
						c3.31,0.14,6.312-2.225,6.413-5.112c0.437-12.723,1.104-31.947-1.134-40.517c-0.756-2.908-3.863-5.012-7.39-5.012
						c-0.01,0-0.02,0-0.03,0c-8.044,0.028-22.571,1.136-34.244,2.025C1624.56,1978.82,1619.383,1979.213,1615.622,1979.437
						L1615.622,1979.437z"/>
					<g style="opacity:0.6;">
						<path style="fill:#FFFFFF;" d="M1715.787,1993.937c-7.405-0.088-12.193,4.84-10.639,10.951s8.884,11.103,16.29,11.092
							l390.087-0.59c7.406-0.011,13.417-3.745,13.358-8.298c-0.059-4.553-6.166-8.35-13.571-8.438L1715.787,1993.937z"/>
					</g>
					<path style="fill:#FFFFFF;" d="M1665.927,2128.831c-0.085,0-0.171,0-0.26-0.002l-44.365-0.823
						c-7.186-0.135-13.077-5.189-13.705-11.759l-3.567-37.261c-0.253-2.641,0.585-5.237,2.357-7.306
						c1.943-2.271,4.852-3.682,7.982-3.867l0,0c3.744-0.222,8.902-0.616,14.576-1.047c12.377-0.943,26.407-2.012,34.681-2.041
						c0.02,0,0.04,0,0.059,0c6.644,0,12.357,4.124,13.905,10.044c2.291,8.792,1.943,25.097,1.341,42.449
						C1678.712,2123.668,1672.903,2128.831,1665.927,2128.831z M1614.771,2074.531c-1.315,0.079-2.505,0.634-3.268,1.525
						c-0.408,0.475-0.871,1.256-0.773,2.288l3.567,37.261c0.302,3.161,3.37,5.598,7.13,5.667l44.365,0.823
						c3.462,0.136,6.315-2.23,6.413-5.112c0.437-12.724,1.105-31.948-1.131-40.516c-0.759-2.908-3.866-5.013-7.393-5.013
						c-0.01,0-0.02,0-0.03,0c-8.034,0.028-22.541,1.134-34.197,2.022C1623.738,2073.913,1618.541,2074.308,1614.771,2074.531
						L1614.771,2074.531z"/>
					<g style="opacity:0.6;">
						<path style="fill:#FFFFFF;" d="M1714.936,2089.031c-7.405-0.088-12.193,4.84-10.639,10.952
							c1.553,6.112,8.884,11.103,16.289,11.092l390.087-0.59c7.406-0.011,13.417-3.745,13.358-8.298
							c-0.059-4.553-6.166-8.35-13.571-8.438L1714.936,2089.031z"/>
					</g>
					<path style="fill:#FFFFFF;" d="M1665.079,2223.925c-0.089,0-0.174,0-0.263-0.001l-44.365-0.823
						c-7.183-0.135-13.074-5.187-13.705-11.755l-3.567-37.265c-0.253-2.641,0.585-5.237,2.357-7.306
						c1.943-2.271,4.852-3.682,7.981-3.867l0,0c3.744-0.222,8.902-0.616,14.576-1.047c12.377-0.943,26.407-2.012,34.681-2.041
						c0.02,0,0.04,0,0.059,0c6.644,0,12.357,4.124,13.905,10.044c2.288,8.784,1.943,25.09,1.344,42.447
						C1677.86,2218.764,1672.051,2223.925,1665.079,2223.925z M1613.919,2169.625c-1.315,0.079-2.505,0.635-3.268,1.525
						c-0.408,0.475-0.871,1.256-0.772,2.288l3.567,37.263c0.306,3.159,3.37,5.596,7.13,5.666l44.365,0.823
						c0.046,0.002,0.092,0.002,0.141,0.002c3.373,0,6.177-2.27,6.275-5.115c0.437-12.725,1.098-31.956-1.134-40.514
						c-0.759-2.907-3.866-5.013-7.393-5.013c-0.01,0-0.02,0-0.03,0c-8.034,0.028-22.541,1.134-34.198,2.022
						C1622.887,2169.008,1617.69,2169.402,1613.919,2169.625L1613.919,2169.625z"/>
					<g style="opacity:0.6;">
						<path style="fill:#FFFFFF;" d="M1714.085,2184.126c-7.405-0.088-12.193,4.84-10.639,10.952
							c1.554,6.112,8.884,11.103,16.289,11.092l390.087-0.59c7.406-0.011,13.417-3.745,13.357-8.298
							c-0.059-4.553-6.166-8.35-13.571-8.438L1714.085,2184.126z"/>
					</g>
				</g>
				<g>
					<path style="fill:#FFFFFF;" d="M2308.587,1933.661c-0.085,0-0.171,0-0.26-0.002l-44.368-0.823
						c-7.183-0.135-13.073-5.189-13.705-11.757l-3.567-37.265c-0.253-2.641,0.585-5.237,2.357-7.308
						c1.946-2.271,4.855-3.68,7.981-3.864c3.734-0.222,8.876-0.615,14.533-1.045c12.393-0.945,26.439-2.015,34.727-2.043
						c0.016,0,0.036,0,0.056,0c6.644,0,12.357,4.122,13.905,10.043c2.288,8.784,1.943,25.09,1.344,42.449
						C2321.368,1928.5,2315.56,1933.661,2308.587,1933.661z M2257.427,1879.362c-1.315,0.079-2.505,0.634-3.268,1.524
						c-0.407,0.475-0.871,1.256-0.772,2.288l3.567,37.263c0.306,3.161,3.369,5.598,7.13,5.667l44.368,0.823
						c3.376,0.099,6.315-2.23,6.414-5.113c0.437-12.725,1.098-31.957-1.134-40.516c-0.759-2.908-3.866-5.012-7.393-5.012
						c-0.01,0-0.02,0-0.03,0c-8.044,0.028-22.567,1.134-34.24,2.023C2266.369,1878.744,2261.188,1879.139,2257.427,1879.362
						L2257.427,1879.362z"/>
					<g style="opacity:0.6;">
						<path style="fill:#FFFFFF;" d="M2357.594,1893.862c-7.405-0.088-12.193,4.84-10.639,10.952
							c1.553,6.112,8.884,11.103,16.289,11.092l390.087-0.59c7.406-0.011,13.417-3.745,13.357-8.298
							c-0.059-4.553-6.166-8.35-13.571-8.438L2357.594,1893.862z"/>
					</g>
					<path style="fill:#FFFFFF;" d="M2307.736,2028.756c-0.085,0-0.171,0-0.26-0.002l-44.368-0.823
						c-7.183-0.135-13.073-5.189-13.701-11.759l-3.57-37.261c-0.253-2.641,0.585-5.235,2.357-7.306
						c1.943-2.272,4.855-3.682,7.985-3.868l0,0c3.744-0.222,8.902-0.616,14.576-1.049c12.377-0.942,26.407-2.01,34.677-2.04
						c0.02,0,0.039,0,0.059,0c6.644,0,12.357,4.122,13.905,10.043c2.288,8.784,1.943,25.09,1.344,42.449
						C2320.517,2023.595,2314.708,2028.756,2307.736,2028.756z M2256.579,1974.457c-1.318,0.079-2.508,0.636-3.271,1.527
						c-0.408,0.473-0.871,1.256-0.772,2.286l3.57,37.261c0.302,3.161,3.366,5.598,7.127,5.667l44.368,0.823
						c3.498,0.12,6.312-2.23,6.413-5.113c0.437-12.725,1.098-31.957-1.134-40.516c-0.759-2.908-3.866-5.011-7.393-5.011
						c-0.01,0-0.02,0-0.03,0c-8.031,0.028-22.538,1.134-34.191,2.022C2265.547,1973.839,2260.35,1974.233,2256.579,1974.457
						L2256.579,1974.457z"/>
					<g style="opacity:0.6;">
						<path style="fill:#FFFFFF;" d="M2356.742,1988.957c-7.405-0.088-12.192,4.84-10.639,10.952
							c1.553,6.112,8.884,11.103,16.29,11.092l390.087-0.59c7.406-0.011,13.417-3.745,13.358-8.298
							c-0.059-4.553-6.166-8.35-13.571-8.438L2356.742,1988.957z"/>
					</g>
					<path style="fill:#FFFFFF;" d="M2306.888,2123.85c-0.089,0-0.174,0-0.263-0.001l-44.368-0.823
						c-7.183-0.135-13.074-5.189-13.701-11.757l-3.57-37.263c-0.253-2.641,0.585-5.237,2.357-7.309
						c1.946-2.27,4.855-3.68,7.985-3.864l0,0c3.744-0.222,8.902-0.616,14.576-1.047c12.376-0.944,26.406-2.012,34.681-2.042
						c0.02,0,0.04,0,0.059,0c6.647,0,12.357,4.124,13.902,10.048c2.295,8.8,1.946,25.098,1.345,42.445
						C2319.665,2118.689,2313.86,2123.85,2306.888,2123.85z M2304.639,2066.476c-0.01,0-0.02,0-0.03,0
						c-8.034,0.028-22.541,1.134-34.198,2.022c-5.717,0.436-10.914,0.83-14.684,1.054l0,0c-1.318,0.079-2.508,0.634-3.271,1.525
						c-0.407,0.473-0.871,1.256-0.772,2.288l3.57,37.263c0.299,3.108,3.429,5.597,7.127,5.666l44.368,0.823
						c3.356,0.14,6.315-2.225,6.414-5.113c0.437-12.717,1.104-31.934-1.134-40.514
						C2311.273,2068.58,2308.167,2066.476,2304.639,2066.476z"/>
					<g style="opacity:0.6;">
						<path style="fill:#FFFFFF;" d="M2355.892,2084.052c-7.405-0.088-12.193,4.84-10.639,10.952
							c1.554,6.112,8.884,11.103,16.289,11.092l390.087-0.59c7.406-0.011,13.417-3.745,13.358-8.298
							c-0.059-4.553-6.166-8.35-13.571-8.438L2355.892,2084.052z"/>
					</g>
					<path style="fill:#FFFFFF;" d="M2306.036,2218.945c-0.089,0-0.174,0-0.263-0.001l-44.365-0.823
						c-7.186-0.135-13.077-5.189-13.705-11.757l-3.567-37.263c-0.256-2.638,0.582-5.232,2.354-7.304
						c1.943-2.272,4.855-3.682,7.985-3.868l0,0c3.734-0.222,8.879-0.615,14.536-1.045c12.393-0.945,26.436-2.015,34.72-2.045
						c0.02,0,0.039,0,0.059,0c6.647,0,12.36,4.124,13.902,10.048c2.288,8.767,1.943,25.08,1.344,42.444
						C2318.814,2213.784,2313.005,2218.945,2306.036,2218.945z M2303.788,2161.57c-0.01,0-0.02,0-0.029,0
						c-8.041,0.028-22.564,1.136-34.234,2.025c-5.703,0.434-10.884,0.828-14.648,1.052l0,0c-1.318,0.079-2.508,0.635-3.271,1.525
						c-0.404,0.473-0.868,1.254-0.769,2.285l3.567,37.265c0.302,3.161,3.37,5.596,7.13,5.666l44.365,0.823
						c0.046,0.002,0.092,0.002,0.141,0.002c3.373,0,6.173-2.27,6.272-5.115c0.463-13.491,1.098-31.969-1.134-40.514
						C2310.421,2163.674,2307.315,2161.57,2303.788,2161.57z"/>
					<g style="opacity:0.6;">
						<path style="fill:#FFFFFF;" d="M2355.04,2179.146c-7.405-0.088-12.193,4.84-10.639,10.952
							c1.554,6.112,8.884,11.103,16.29,11.092l390.087-0.591c7.406-0.011,13.417-3.745,13.358-8.298s-6.166-8.35-13.571-8.438
							L2355.04,2179.146z"/>
					</g>
				</g>
				<g>
					<path style="fill:#FFFFFF;" d="M1678.077,2400.465c-0.089,0-0.174,0-0.263-0.002l-44.365-0.823
						c-7.183-0.135-13.073-5.189-13.705-11.757l-3.567-37.263c-0.253-2.642,0.585-5.239,2.357-7.309
						c1.946-2.271,4.855-3.68,7.981-3.864l0,0c3.744-0.222,8.902-0.616,14.576-1.047c12.377-0.943,26.407-2.012,34.681-2.041
						c0.02,0,0.04,0,0.059,0c6.647,0,12.36,4.124,13.902,10.048c2.295,8.788,1.946,25.092,1.345,42.445
						C1690.858,2395.304,1685.053,2400.465,1678.077,2400.465z M1675.828,2343.09c-0.01,0-0.02,0-0.03,0
						c-8.034,0.028-22.541,1.134-34.198,2.022c-5.717,0.436-10.914,0.83-14.684,1.054l0,0c-1.315,0.079-2.505,0.634-3.268,1.523
						c-0.408,0.475-0.871,1.258-0.773,2.29l3.567,37.261c0.306,3.161,3.37,5.598,7.13,5.667l44.365,0.823
						c0.046,0.002,0.092,0.002,0.141,0.002c3.373,0,6.173-2.27,6.272-5.113c0.437-12.723,1.105-31.948-1.134-40.516
						C1682.462,2345.194,1679.356,2343.09,1675.828,2343.09z"/>
					<g style="opacity:0.6;">
						<path style="fill:#FFFFFF;" d="M1727.082,2360.667c-7.405-0.088-12.193,4.84-10.639,10.952
							c1.553,6.112,8.884,11.103,16.289,11.092l390.087-0.591c7.406-0.011,13.417-3.745,13.358-8.298s-6.166-8.35-13.571-8.438
							L1727.082,2360.667z"/>
					</g>
					<path style="fill:#FFFFFF;" d="M1677.226,2495.559c-0.089,0-0.174,0-0.263-0.001l-44.365-0.823
						c-7.179-0.133-13.073-5.186-13.705-11.755l-3.567-37.265c-0.253-2.641,0.585-5.237,2.357-7.308
						c1.946-2.271,4.855-3.68,7.981-3.864c3.738-0.223,8.886-0.615,14.546-1.047c12.386-0.944,26.43-2.013,34.71-2.043
						c0.02,0,0.04,0,0.059,0c6.644,0,12.357,4.124,13.905,10.044c2.288,8.782,1.943,25.09,1.344,42.447
						C1690.007,2490.398,1684.198,2495.559,1677.226,2495.559z M1626.066,2441.262c-1.315,0.079-2.505,0.635-3.268,1.524
						c-0.408,0.475-0.871,1.256-0.772,2.288l3.567,37.263c0.299,3.108,3.432,5.598,7.13,5.666l44.365,0.823
						c3.359,0.179,6.318-2.227,6.417-5.113c0.437-12.725,1.098-31.957-1.134-40.514c-0.759-2.908-3.866-5.013-7.393-5.013
						c-0.01,0-0.02,0-0.03,0c-8.041,0.028-22.557,1.136-34.224,2.023C1635.017,2440.644,1629.83,2441.038,1626.066,2441.262
						L1626.066,2441.262z"/>
					<g style="opacity:0.6;">
						<path style="fill:#FFFFFF;" d="M1726.231,2455.761c-7.405-0.088-12.193,4.84-10.639,10.952
							c1.554,6.112,8.884,11.103,16.29,11.092l390.087-0.591c7.406-0.011,13.417-3.745,13.357-8.298
							c-0.059-4.552-6.166-8.35-13.571-8.438L1726.231,2455.761z"/>
					</g>
					<path style="fill:#FFFFFF;" d="M1676.377,2590.654c-0.089,0-0.174,0-0.263-0.002l-44.368-0.823
						c-7.183-0.133-13.073-5.187-13.701-11.757l-3.57-37.263c-0.253-2.641,0.585-5.237,2.357-7.308
						c1.946-2.271,4.855-3.68,7.982-3.864c3.738-0.223,8.886-0.615,14.546-1.047c12.386-0.944,26.43-2.014,34.71-2.043
						c0.02,0,0.036,0,0.053,0c6.65,0,12.363,4.124,13.912,10.044c2.288,8.784,1.943,25.09,1.344,42.447
						C1689.155,2585.493,1683.35,2590.654,1676.377,2590.654z M1625.214,2536.356c-1.315,0.079-2.505,0.634-3.268,1.524
						c-0.408,0.475-0.871,1.256-0.772,2.288l3.57,37.263c0.299,3.11,3.429,5.598,7.127,5.666l44.368,0.823
						c3.297,0.104,6.312-2.226,6.414-5.114c0.437-12.725,1.098-31.956-1.134-40.514c-0.759-2.914-4.001-4.99-7.426-5.013
						c-8.037,0.028-22.554,1.136-34.22,2.023C1634.166,2535.738,1628.978,2536.133,1625.214,2536.356L1625.214,2536.356z"/>
					<g style="opacity:0.6;">
						<path style="fill:#FFFFFF;" d="M1725.38,2550.856c-7.405-0.088-12.193,4.84-10.639,10.951s8.884,11.103,16.289,11.092
							l390.087-0.59c7.406-0.011,13.417-3.745,13.358-8.298c-0.059-4.553-6.165-8.35-13.57-8.438L1725.38,2550.856z"/>
					</g>
					<path style="fill:#FFFFFF;" d="M1675.523,2685.748c-0.089,0-0.174,0-0.263-0.002l-44.365-0.823
						c-7.183-0.133-13.073-5.187-13.701-11.757l-3.57-37.263c-0.253-2.641,0.585-5.237,2.357-7.308
						c1.946-2.271,4.855-3.68,7.981-3.864c3.734-0.222,8.876-0.615,14.533-1.045c12.393-0.945,26.443-2.015,34.727-2.043
						c0.016,0,0.036,0,0.056,0c6.644,0,12.357,4.122,13.905,10.043c2.288,8.783,1.943,25.09,1.345,42.447
						C1688.304,2680.587,1682.495,2685.748,1675.523,2685.748z M1624.363,2631.451c-1.315,0.079-2.505,0.635-3.268,1.524
						c-0.408,0.475-0.871,1.256-0.773,2.288l3.57,37.263c0.299,3.11,3.429,5.598,7.127,5.666l44.365,0.823
						c0.046,0.001,0.092,0.001,0.141,0.001c3.373,0,6.177-2.27,6.275-5.115c0.437-12.725,1.098-31.956-1.134-40.514
						c-0.759-2.907-3.866-5.011-7.393-5.011c-0.01,0-0.02,0-0.03,0c-8.041,0.028-22.567,1.134-34.237,2.023
						C1633.308,2630.833,1628.124,2631.227,1624.363,2631.451L1624.363,2631.451z"/>
					<g style="opacity:0.6;">
						<path style="fill:#FFFFFF;" d="M1724.53,2645.95c-7.405-0.088-12.193,4.84-10.639,10.952
							c1.554,6.112,8.884,11.103,16.289,11.092l390.087-0.59c7.406-0.011,13.417-3.745,13.358-8.298
							c-0.059-4.553-6.166-8.35-13.571-8.438L1724.53,2645.95z"/>
					</g>
				</g>
				<g>
					<path style="fill:#FFFFFF;" d="M2319.034,2395.485c-0.089,0-0.174,0-0.263-0.002l-44.365-0.823
						c-7.186-0.135-13.077-5.189-13.705-11.757l-3.57-37.263c-0.253-2.64,0.585-5.235,2.357-7.304
						c1.946-2.273,4.855-3.683,7.985-3.869l0,0c3.744-0.222,8.902-0.616,14.576-1.047c12.376-0.943,26.407-2.012,34.681-2.041
						c0.02,0,0.04,0,0.059,0c6.647,0,12.36,4.124,13.902,10.047c2.288,8.767,1.943,25.08,1.344,42.444
						C2331.812,2390.324,2326.007,2395.485,2319.034,2395.485z M2267.874,2341.186c-1.315,0.079-2.508,0.636-3.271,1.527
						c-0.408,0.475-0.871,1.256-0.773,2.286l3.57,37.263c0.302,3.161,3.369,5.597,7.13,5.666l44.365,0.823
						c3.304,0.102,6.312-2.225,6.414-5.113c0.464-13.491,1.098-31.969-1.134-40.514c-0.756-2.909-3.863-5.013-7.39-5.013
						c-0.01,0-0.02,0-0.03,0c-8.034,0.028-22.541,1.134-34.198,2.022C2276.842,2340.567,2271.645,2340.962,2267.874,2341.186
						L2267.874,2341.186z"/>
					<g style="opacity:0.6;">
						<path style="fill:#FFFFFF;" d="M2368.038,2355.687c-7.405-0.088-12.193,4.84-10.639,10.951s8.884,11.103,16.29,11.092
							l390.087-0.59c7.406-0.011,13.417-3.745,13.358-8.298c-0.059-4.553-6.166-8.35-13.571-8.438L2368.038,2355.687z"/>
					</g>
					<path style="fill:#FFFFFF;" d="M2318.183,2490.579c-0.089,0-0.174,0-0.263-0.002l-44.365-0.823
						c-7.186-0.133-13.077-5.187-13.705-11.757l-3.567-37.263c-0.256-2.638,0.582-5.232,2.354-7.304
						c1.943-2.271,4.855-3.682,7.985-3.867l0,0c3.734-0.222,8.879-0.615,14.536-1.045c12.393-0.945,26.436-2.015,34.72-2.045
						c0.02,0,0.036,0,0.052,0c6.65,0,12.367,4.125,13.908,10.048c2.295,8.79,1.946,25.093,1.344,42.445
						C2330.96,2485.418,2325.152,2490.579,2318.183,2490.579z M2315.931,2433.205c-0.01,0-0.02,0-0.03,0
						c-8.037,0.028-22.561,1.136-34.23,2.025c-5.703,0.434-10.884,0.829-14.648,1.052l0,0c-1.318,0.079-2.508,0.635-3.271,1.525
						c-0.404,0.473-0.868,1.254-0.769,2.285l3.567,37.265c0.299,3.11,3.429,5.598,7.13,5.666l44.365,0.823
						c0.046,0.001,0.092,0.001,0.141,0.001c3.373,0,6.174-2.27,6.272-5.115c0.437-12.72,1.104-31.944-1.134-40.514
						C2322.568,2435.309,2319.461,2433.205,2315.931,2433.205z"/>
					<g style="opacity:0.6;">
						<path style="fill:#FFFFFF;" d="M2367.187,2450.781c-7.405-0.088-12.193,4.84-10.639,10.952s8.884,11.103,16.29,11.092
							l390.087-0.59c7.406-0.011,13.417-3.745,13.357-8.298c-0.059-4.552-6.166-8.35-13.571-8.438L2367.187,2450.781z"/>
					</g>
					<path style="fill:#FFFFFF;" d="M2317.331,2585.674c-0.089,0-0.174,0-0.263-0.001l-44.365-0.824
						c-7.186-0.133-13.077-5.187-13.705-11.757l-3.567-37.263c-0.256-2.638,0.582-5.232,2.354-7.304
						c1.943-2.272,4.855-3.682,7.985-3.868l0,0c3.731-0.222,8.869-0.615,14.523-1.045c12.396-0.943,26.446-2.015,34.737-2.043
						c0.02,0,0.039,0,0.059,0c6.647,0,12.354,4.124,13.899,10.046c2.295,8.79,1.946,25.094,1.344,42.446
						C2330.115,2580.513,2324.307,2585.674,2317.331,2585.674z M2315.086,2528.301c-0.01,0-0.023,0-0.033,0
						c-8.044,0.028-22.574,1.134-34.247,2.023c-5.697,0.436-10.874,0.828-14.635,1.052l0,0c-1.318,0.079-2.508,0.635-3.271,1.525
						c-0.405,0.473-0.868,1.254-0.769,2.284l3.567,37.265c0.302,3.161,3.366,5.597,7.13,5.666l44.365,0.823
						c0.046,0.002,0.092,0.002,0.141,0.002c3.373,0,6.173-2.27,6.272-5.114c0.437-12.722,1.104-31.946-1.134-40.516
						C2321.717,2530.403,2318.613,2528.301,2315.086,2528.301z"/>
					<g style="opacity:0.6;">
						<path style="fill:#FFFFFF;" d="M2366.336,2545.875c-7.405-0.088-12.193,4.84-10.639,10.952
							c1.553,6.112,8.884,11.103,16.289,11.092l390.087-0.591c7.406-0.011,13.417-3.745,13.358-8.298s-6.166-8.35-13.571-8.438
							L2366.336,2545.875z"/>
					</g>
					<path style="fill:#FFFFFF;" d="M2316.48,2680.768c-0.089,0-0.174,0-0.263-0.002l-44.365-0.823
						c-7.186-0.133-13.077-5.187-13.705-11.757l-3.567-37.261c-0.253-2.642,0.585-5.239,2.357-7.309
						c1.946-2.27,4.855-3.68,7.981-3.864l0,0c3.734-0.222,8.872-0.615,14.526-1.045c12.396-0.943,26.446-2.013,34.73-2.043
						c6.654-0.143,12.413,4.107,13.961,10.046c2.294,8.79,1.946,25.094,1.344,42.445
						C2329.264,2675.607,2323.456,2680.768,2316.48,2680.768z M2314.231,2623.395c-0.01,0-0.02,0-0.03,0
						c-8.044,0.028-22.571,1.136-34.244,2.025c-5.7,0.434-10.878,0.827-14.638,1.05l0,0c-1.315,0.079-2.505,0.635-3.268,1.524
						c-0.408,0.475-0.871,1.257-0.773,2.29l3.567,37.261c0.302,3.161,3.366,5.597,7.13,5.666l44.365,0.823
						c3.346,0.104,6.315-2.226,6.414-5.112c0.437-12.722,1.104-31.946-1.134-40.516
						C2320.865,2625.499,2317.759,2623.395,2314.231,2623.395z"/>
					<g style="opacity:0.6;">
						<path style="fill:#FFFFFF;" d="M2365.485,2640.971c-7.405-0.088-12.193,4.84-10.639,10.951
							c1.553,6.112,8.884,11.103,16.289,11.092l390.087-0.591c7.406-0.011,13.417-3.745,13.358-8.298
							c-0.059-4.553-6.166-8.35-13.571-8.438L2365.485,2640.971z"/>
					</g>
				</g>
			</g>
			
				<linearGradient id="SVGID_00000164506898299681038040000003553804949390268588_" gradientUnits="userSpaceOnUse" x1="1809.2177" y1="115.8299" x2="1167.2968" y2="960.2617" gradientTransform="matrix(0.9891 0.1473 -0.1473 0.9891 673.3672 -78.2657)">
				<stop  offset="0" style="stop-color:#09005D"/>
				<stop  offset="1" style="stop-color:#1A0F91"/>
			</linearGradient>
			<path style="fill:url(#SVGID_00000164506898299681038040000003553804949390268588_);" d="M2247.997,475.182
				c-49.836-35.336-93.447-35.036-124.225-26.252c-28.076,8.012-46.466,34.884-44.063,63.981l11.944,144.608l157.399,15.389
				C2249.053,672.908,2345.734,544.482,2247.997,475.182z M2177.68,591.13c-21.693-0.194-39.12-17.936-38.927-39.63
				c0.194-21.693,17.937-39.121,39.629-38.928c21.694,0.194,39.121,17.937,38.927,39.63
				C2217.116,573.896,2199.374,591.324,2177.68,591.13z"/>
			<g>
				<path style="fill:#BDD0FB;" d="M2107.968,596.442c-1.736,0-3.205-1.331-3.353-3.09l-1.9-23.027
					c-0.151-1.852,1.226-3.478,3.08-3.631c1.818-0.15,3.478,1.226,3.632,3.078l1.9,23.027c0.151,1.852-1.226,3.478-3.08,3.631
					C2108.155,596.439,2108.06,596.442,2107.968,596.442z M2104.24,551.314c-1.732,0-3.205-1.33-3.353-3.088l-1.446-17.485
					c-2.271-27.515,15.256-52.956,41.673-60.494c18.777-5.361,38.083-5.981,57.383-1.847c1.818,0.389,2.978,2.18,2.587,3.997
					c-0.391,1.816-2.189,2.975-3.994,2.587c-18.211-3.902-36.423-3.315-54.128,1.736c-23.336,6.66-38.816,29.147-36.808,53.466
					l1.446,17.485c0.151,1.852-1.226,3.48-3.08,3.632C2104.427,551.311,2104.332,551.314,2104.24,551.314z"/>
			</g>
			
				<linearGradient id="SVGID_00000114072749630683507860000016042073292594098831_" gradientUnits="userSpaceOnUse" x1="1830.1521" y1="137.6106" x2="1191.5939" y2="977.619" gradientTransform="matrix(1 0.0089 -0.0089 1 645.3589 169.3127)">
				<stop  offset="0" style="stop-color:#09005D"/>
				<stop  offset="1" style="stop-color:#1A0F91"/>
			</linearGradient>
			<path style="fill:url(#SVGID_00000114072749630683507860000016042073292594098831_);" d="M1875.826,748.971l0.65-72.644
				c0.225-25.078,21.189-44.977,46.244-43.893l500.703,21.642c22.22,0.961,40.063,18.666,41.197,40.879l3.561,69.839
				L1875.826,748.971z"/>
			<path style="fill:#BDD0FB;" d="M2063.419,660.633h-0.03l-21.542-0.194c-1.861-0.016-3.353-1.537-3.337-3.396
				c0.017-1.849,1.522-3.336,3.366-3.336c0,0,0.02,0,0.03,0l21.541,0.194c1.861,0.016,3.353,1.537,3.337,3.396
				C2066.768,659.145,2065.263,660.633,2063.419,660.633z"/>
			<path style="fill:#BDD0FB;" d="M1903.173,725.967h-0.03c-1.861-0.016-3.353-1.537-3.337-3.396l0.263-29.385
				c0.099-10.884,4.428-21.078,12.193-28.704c7.764-7.627,17.968-11.772,28.915-11.677l79.19,0.708
				c1.861,0.017,3.353,1.537,3.337,3.396c-0.016,1.849-1.522,3.337-3.366,3.337h-0.03l-79.191-0.708
				c-0.105-0.002-0.21-0.002-0.312-0.002c-8.968,0-17.419,3.455-23.826,9.748c-6.483,6.367-10.095,14.877-10.177,23.961
				l-0.263,29.385C1906.523,724.48,1905.018,725.967,1903.173,725.967z"/>
			
				<linearGradient id="SVGID_00000025417609413210684240000000319577220902532251_" gradientUnits="userSpaceOnUse" x1="1749.6733" y1="189.0051" x2="1308.7717" y2="998.59" gradientTransform="matrix(1 0.0089 -0.0089 1 645.3589 169.3127)">
				<stop  offset="0" style="stop-color:#4F52FF"/>
				<stop  offset="1" style="stop-color:#4042E2"/>
			</linearGradient>
			<path style="fill:url(#SVGID_00000025417609413210684240000000319577220902532251_);" d="M1719.128,720.98l875.841,7.814
				c31.493,0.281,58.215,23.185,63.308,54.265l0.703,4.289c5.58,34.042-20.868,64.896-55.362,64.587l-898.562-8.04
				c-20.643-0.185-36.941-17.593-35.765-38.205l2.293-40.2C1673.018,740.344,1693.943,720.755,1719.128,720.98z"/>
			<g>
				
					<linearGradient id="SVGID_00000161610017623294065670000015635648896135843511_" gradientUnits="userSpaceOnUse" x1="1380.2825" y1="2963.8352" x2="1319.6915" y2="2135.7559" gradientTransform="matrix(0.9891 0.1473 -0.1473 0.9891 673.3672 -78.2657)">
					<stop  offset="0" style="stop-color:#FF928E"/>
					<stop  offset="1" style="stop-color:#FE7062"/>
				</linearGradient>
				<path style="fill:url(#SVGID_00000161610017623294065670000015635648896135843511_);" d="M1694.615,960.409
					c0.128-5.332,4.168-9.812,9.477-10.334c10.128-0.998,21.905-1.387,34.147-1.092c26.92,0.648,44.248,6.474,57.643,18.306
					c14.427,12.561,23.211,32.272,22.537,60.216c-0.73,30.285-11.119,50.945-25.103,63.527
					c-15.265,13.493-38.139,19.518-65.902,18.852c-10.874-0.261-19.664-0.978-26.672-1.825c-5.474-0.662-9.559-5.33-9.426-10.843
					L1694.615,960.409z M1724.135,1071.191c-0.142,5.873,4.503,10.762,10.377,10.907c0.173,0.004,0.346,0.009,0.518,0.013
					c29.016,0.931,48.376-16.453,49.289-54.258c1.004-32.86-15.824-50.651-43.378-51.316c-1.576-0.039-3.03-0.04-4.369-0.011
					c-5.701,0.12-10.268,4.703-10.405,10.404L1724.135,1071.191z"/>
				
					<linearGradient id="SVGID_00000108279061773820833470000013398721577900942470_" gradientUnits="userSpaceOnUse" x1="1481.4385" y1="2956.4365" x2="1420.8477" y2="2128.3584" gradientTransform="matrix(0.9891 0.1473 -0.1473 0.9891 673.3672 -78.2657)">
					<stop  offset="0" style="stop-color:#FF928E"/>
					<stop  offset="1" style="stop-color:#FE7062"/>
				</linearGradient>
				<path style="fill:url(#SVGID_00000108279061773820833470000013398721577900942470_);" d="M1873.186,964.074l-3.304,136.942
					c-0.142,5.882-5.026,10.536-10.908,10.393l-10.876-0.263c-5.882-0.142-10.534-5.026-10.393-10.907l3.304-136.942
					c0.142-5.882,5.025-10.536,10.908-10.393l10.877,0.263C1868.675,953.308,1873.328,958.192,1873.186,964.074z"/>
				
					<linearGradient id="SVGID_00000028304732737832337060000005248978466421909389_" gradientUnits="userSpaceOnUse" x1="1570.1752" y1="2949.9336" x2="1509.5842" y2="2121.855" gradientTransform="matrix(0.9891 0.1473 -0.1473 0.9891 673.3672 -78.2657)">
					<stop  offset="0" style="stop-color:#FF928E"/>
					<stop  offset="1" style="stop-color:#FE7062"/>
				</linearGradient>
				<path style="fill:url(#SVGID_00000028304732737832337060000005248978466421909389_);" d="M1972.685,1047.205l-30.859-0.746
					c-5.882-0.142-10.766,4.512-10.908,10.394l-0.392,16.26c-0.142,5.882,4.512,10.765,10.394,10.907l36.959,0.891
					c5.882,0.142,10.535,5.025,10.393,10.908l-0.194,8.046c-0.142,5.882-5.025,10.535-10.907,10.393l-69.137-1.665
					c-5.882-0.142-10.536-5.025-10.395-10.908l3.301-136.941c0.142-5.882,5.025-10.536,10.908-10.394l66.197,1.597
					c5.882,0.142,10.536,5.025,10.393,10.907l-0.194,8.046c-0.142,5.882-5.026,10.536-10.908,10.393l-34.017-0.822
					c-5.882-0.142-10.766,4.512-10.908,10.394l-0.279,11.571c-0.142,5.882,4.512,10.765,10.393,10.907l30.863,0.746
					c5.882,0.142,10.535,5.025,10.393,10.907l-0.188,7.813C1983.452,1042.693,1978.568,1047.347,1972.685,1047.205z"/>
				
					<linearGradient id="SVGID_00000063601294320836807340000008812798458050679430_" gradientUnits="userSpaceOnUse" x1="1678.4111" y1="2942.0269" x2="1617.8202" y2="2113.9485" gradientTransform="matrix(0.9891 0.1473 -0.1473 0.9891 673.3672 -78.2657)">
					<stop  offset="0" style="stop-color:#FF928E"/>
					<stop  offset="1" style="stop-color:#FE7062"/>
				</linearGradient>
				<path style="fill:url(#SVGID_00000063601294320836807340000008812798458050679430_);" d="M2030.521,987.281l-16.767-0.405
					c-5.882-0.142-10.535-5.025-10.393-10.907l0.211-8.751c0.142-5.882,5.025-10.536,10.907-10.394l87.646,2.112
					c5.882,0.142,10.536,5.025,10.393,10.908l-0.211,8.751c-0.142,5.882-5.025,10.535-10.906,10.393l-17.399-0.419
					c-5.881-0.142-10.764,4.511-10.906,10.393l-2.579,106.892c-0.142,5.882-5.025,10.535-10.906,10.394l-10.88-0.262
					c-5.882-0.141-10.536-5.025-10.394-10.907l2.577-106.89C2041.055,992.307,2036.403,987.424,2030.521,987.281z"/>
				
					<linearGradient id="SVGID_00000183955062570308352050000012406918675683161523_" gradientUnits="userSpaceOnUse" x1="1843.4711" y1="2929.9456" x2="1782.8801" y2="2101.8665" gradientTransform="matrix(0.9891 0.1473 -0.1473 0.9891 673.3672 -78.2657)">
					<stop  offset="0" style="stop-color:#FF928E"/>
					<stop  offset="1" style="stop-color:#FE7062"/>
				</linearGradient>
				<path style="fill:url(#SVGID_00000183955062570308352050000012406918675683161523_);" d="M2172.017,971.861
					c0.129-5.343,4.171-9.799,9.488-10.339c8.856-0.901,20.028-1.366,34.135-1.029c19.769,0.479,33.76,5.054,43.021,13.727
					c8.851,8.208,14.633,21.498,14.259,36.995c-0.374,15.496-5.318,28.534-13.944,37.252c-11.215,11.24-27.537,16.016-46.466,15.559
					c-0.042-0.001-0.084-0.002-0.126-0.003c-5.945-0.156-10.922,4.441-11.066,10.387l-0.833,34.579
					c-0.142,5.882-5.026,10.536-10.908,10.394l-10.457-0.253c-5.881-0.143-10.534-5.026-10.392-10.908L2172.017,971.861z
					 M2202.497,1025.64c-0.141,5.833,4.426,10.753,10.259,10.906c0.069,0.002,0.138,0.003,0.209,0.005
					c17.035,0.409,27.783-8.963,28.175-25.159c0.352-14.559-8.484-23.461-24.468-23.849c-1.128-0.028-2.195-0.033-3.197-0.018
					c-5.654,0.079-10.173,4.741-10.309,10.394L2202.497,1025.64z"/>
				
					<linearGradient id="SVGID_00000165204026918836284430000018317639697190251197_" gradientUnits="userSpaceOnUse" x1="1961.0697" y1="2921.3379" x2="1900.4788" y2="2093.2581" gradientTransform="matrix(0.9891 0.1473 -0.1473 0.9891 673.3672 -78.2657)">
					<stop  offset="0" style="stop-color:#FF928E"/>
					<stop  offset="1" style="stop-color:#FE7062"/>
				</linearGradient>
				<path style="fill:url(#SVGID_00000165204026918836284430000018317639697190251197_);" d="M2305.126,963.835l10.877,0.261
					c5.882,0.142,10.536,5.025,10.394,10.908l-2.577,106.89c-0.142,5.882,4.511,10.765,10.394,10.907l35.066,0.847
					c5.882,0.142,10.536,5.025,10.393,10.907l-0.211,8.751c-0.142,5.882-5.025,10.536-10.907,10.394l-67.244-1.621
					c-5.882-0.142-10.535-5.026-10.394-10.908l3.302-136.942C2294.362,968.347,2299.245,963.694,2305.126,963.835z"/>
				
					<linearGradient id="SVGID_00000142161910759564542760000011278062041977928841_" gradientUnits="userSpaceOnUse" x1="2082.8916" y1="2912.4209" x2="2022.3005" y2="2084.3418" gradientTransform="matrix(0.9891 0.1473 -0.1473 0.9891 673.3672 -78.2657)">
					<stop  offset="0" style="stop-color:#FF928E"/>
					<stop  offset="1" style="stop-color:#FE7062"/>
				</linearGradient>
				<path style="fill:url(#SVGID_00000142161910759564542760000011278062041977928841_);" d="M2431.187,1092.657l-6.668,24.304
					c-1.294,4.719-5.638,7.95-10.53,7.832l-10.947-0.264c-7.028-0.169-11.969-6.978-9.949-13.711l40.799-136.036
					c1.379-4.598,5.663-7.706,10.461-7.59l25.841,0.622c4.784,0.116,8.905,3.407,10.074,8.048l34.738,137.856
					c1.722,6.832-3.544,13.424-10.587,13.254l-12.319-0.297c-4.816-0.116-8.955-3.449-10.094-8.13l-6.091-25.013
					c-1.14-4.681-5.28-8.014-10.095-8.13l-24.103-0.578C2436.825,1084.708,2432.481,1087.938,2431.187,1092.657z M2456.183,1058.388
					c6.983,0.168,12.236-6.316,10.622-13.113l-4.831-20.34c-2.298-9.448-4.54-21.252-6.415-30.691l-0.417-0.014
					c-2.331,9.339-4.724,21.266-7.259,30.365l-5.584,20.212c-1.846,6.683,3.082,13.321,10.013,13.488L2456.183,1058.388z"/>
				
					<linearGradient id="SVGID_00000052812887770621561920000012840906030497005745_" gradientUnits="userSpaceOnUse" x1="2221.2078" y1="2902.2969" x2="2160.6167" y2="2074.2183" gradientTransform="matrix(0.9891 0.1473 -0.1473 0.9891 673.3672 -78.2657)">
					<stop  offset="0" style="stop-color:#FF928E"/>
					<stop  offset="1" style="stop-color:#FE7062"/>
				</linearGradient>
				<path style="fill:url(#SVGID_00000052812887770621561920000012840906030497005745_);" d="M2537.606,1117.119l3.301-136.942
					c0.142-5.882,5.025-10.535,10.906-10.394l20.253,0.487c4.011,0.097,7.627,2.438,9.357,6.058l25.224,52.802
					c8.013,16.872,15.949,36.798,21.83,54.79l0.631,0.016c-1.602-20.941-1.717-42.328-1.144-66.038l0.859-35.602
					c0.142-5.882,5.025-10.535,10.906-10.394l8.144,0.196c5.883,0.141,10.536,5.025,10.395,10.907l-3.302,136.945
					c-0.142,5.882-5.026,10.536-10.908,10.393l-16.395-0.396c-4.045-0.097-7.687-2.479-9.398-6.147l-26.021-55.787
					c-8.009-17.111-16.769-37.753-23.262-56.475l-0.635,0.227c0.338,20.909,0.219,43.225-0.403,69.053l-0.894,37.01
					c-0.142,5.882-5.025,10.535-10.906,10.393l-8.145-0.195C2542.118,1127.885,2537.465,1123.002,2537.606,1117.119z"/>
			</g>
		</g>
		<g>
			
				<linearGradient id="SVGID_00000075134370101330997740000009009092224971746209_" gradientUnits="userSpaceOnUse" x1="117.3767" y1="3008.3252" x2="1722.2504" y2="2583.2234" gradientTransform="matrix(0.9844 0.176 -0.176 0.9844 1111.5369 -130.9432)">
				<stop  offset="0" style="stop-color:#FF928E"/>
				<stop  offset="1" style="stop-color:#FE7062"/>
			</linearGradient>
			<path style="fill:url(#SVGID_00000075134370101330997740000009009092224971746209_);" d="M1125.497,2571.848
				c49.485-134.014,261.175-79.882,384.857-52.595c123.681,27.287,849.388,318.97,849.388,318.97l-38.703,198.133
				c0,0-279.42-44.445-610.207-80.343c-330.786-35.897-516.191-47.083-565.564-114.598
				C1095.895,2773.9,1070.343,2721.214,1125.497,2571.848z"/>
			<path style="fill:#91B3FA;" d="M983.905,2645.803c-102.366-0.438-146.845-88.325-214.191-102.205
				c-7.458-1.537-14.7,6.582-13.299,13.732c1.939,9.893,5.656,18.933,10.924,26.798c-40.224-3.993-79.458-17.608-119.751-21.722
				c-20.428-2.085-51.466-5.473-68.545,8.693c-15.073,12.502-12.316,32.488,0.271,45.36c6.208,6.348,13.946,11.158,22.072,14.687
				c8.271,3.59,21.797,5.375,27.397,13.296c3.747,5.299,3.281,5.387-3.567,9.21c-4.749,2.652-10.138,4.492-15.31,6.1
				c-12.479,3.879-25.617,5.553-38.516,7.386c-29.101,4.137-118.05,19.163-88.881,67.719c6.355,10.578,33.816,23.616,32.472,36.015
				c-0.707,6.52-12.204,14.578-16.447,18.847c-6.975,7.019-13.657,14.416-16.691,24.046c-5.231,16.602,3.444,34.545,19.201,41.481
				c15.339,6.754,32.206,3.832,48.397,4.849c2.575,0.162,6.745-0.164,9.181,1.076c4.592,2.338,2.118-0.97,2.506,4.871
				c0.797,11.996-3.156,21.099,3.272,32.551c10.611,18.905,35.459,25.689,55.537,20.32c26.197-7.006,40.027-31.068,59.328-47.785
				c16.663-14.431,39.149-26.61,61.884-24.419c27.724,2.671,42.384,32.024,70.863,35.144c25.193,2.761,48.854-10.764,68.664-24.729
				c27.708-19.532,49.775,25.393,78.032-1.483c57.446-99.458,44.215-124.911,217.607-126.251c40.06-20.123,19.06-58.762,13.6-65.18
				C1173.556,2644.981,1086.27,2646.24,983.905,2645.803z"/>
			<path style="fill:#FFFFFF;" d="M1410.146,2712.563c-1.659-0.654-2.897-2.194-3.081-4.089c-1.486-15.258-4.205-30.63-8.083-45.689
				c-0.675-2.617,0.903-5.289,3.523-5.964c2.618-0.67,5.288,0.906,5.964,3.523c4.003,15.548,6.812,31.421,8.343,47.184
				c0.265,2.691-1.706,5.087-4.398,5.346C1411.615,2712.954,1410.841,2712.838,1410.146,2712.563z"/>
			<path style="fill:#FFFFFF;" d="M1386.787,2621.482c-1.178-0.464-2.181-1.383-2.714-2.641
				c-10.252-24.174-23.495-47.002-39.362-67.859c-1.636-2.153-1.217-5.229,0.934-6.863c2.152-1.639,5.219-1.217,6.865,0.93
				c16.354,21.504,30.008,45.045,40.58,69.962c1.056,2.49-0.107,5.367-2.597,6.423
				C1389.265,2621.956,1387.94,2621.937,1386.787,2621.482z"/>
			<path style="fill:#FFFFFF;" d="M1319.547,2521.232c-0.609-0.24-1.18-0.612-1.675-1.105c-9.446-9.504-19.57-18.409-30.084-26.475
				c-2.149-1.643-2.554-4.719-0.907-6.867c1.647-2.147,4.725-2.583,6.864-0.903c10.864,8.329,21.318,17.527,31.075,27.336
				c1.906,1.919,1.897,5.021-0.019,6.926C1323.375,2521.562,1321.301,2521.923,1319.547,2521.232z"/>
			<path style="fill:#FFFFFF;" d="M1543.311,2699.253c-1.625-0.64-2.853-2.129-3.073-3.981
				c-4.738-40.129-18.695-79.922-40.37-115.08c-1.418-2.302-0.702-5.319,1.602-6.742c2.298-1.408,5.314-0.697,6.74,1.599
				c22.414,36.365,36.853,77.542,41.755,119.072c0.319,2.686-1.603,5.123-4.291,5.441
				C1544.845,2699.658,1544.038,2699.539,1543.311,2699.253z"/>
			<path style="fill:#FFFFFF;" d="M1488.792,2562.244c-0.828-0.326-1.578-0.878-2.143-1.651
				c-12.49-16.955-26.772-32.39-42.45-45.889c-2.05-1.761-2.28-4.857-0.517-6.906c1.762-2.055,4.848-2.284,6.908-0.515
				c16.235,13.975,31.022,29.955,43.945,47.505c1.603,2.177,1.14,5.241-1.039,6.848
				C1492.086,2562.673,1490.307,2562.841,1488.792,2562.244z"/>
			<path style="fill:#FFFFFF;" d="M1692.867,2717.07c-1.564-0.616-2.771-2.019-3.049-3.799
				c-4.104-26.254-12.189-51.894-24.029-76.212c-1.182-2.435-0.173-5.362,2.259-6.551c2.433-1.177,5.363-0.169,6.547,2.261
				c12.266,25.198,20.643,51.77,24.9,78.985c0.418,2.673-1.409,5.178-4.082,5.596
				C1694.522,2717.492,1693.648,2717.378,1692.867,2717.07z"/>
			<path style="fill:#FFFFFF;" d="M1659.876,2623.335c-1.002-0.395-1.882-1.118-2.459-2.126
				c-5.104-8.954-10.761-17.687-16.81-25.957c-1.595-2.184-1.121-5.248,1.063-6.844c2.181-1.601,5.238-1.119,6.846,1.059
				c6.266,8.57,12.124,17.617,17.413,26.886c1.339,2.349,0.521,5.342-1.83,6.683
				C1662.759,2623.8,1661.209,2623.86,1659.876,2623.335z"/>
			<path style="fill:#FFFFFF;" d="M1627.138,2577.476c-0.698-0.275-1.343-0.718-1.875-1.32c-5.505-6.254-11.391-12.328-17.49-18.051
				c-1.973-1.851-2.072-4.948-0.223-6.921c1.851-1.973,4.955-2.09,6.923-0.22c6.328,5.934,12.432,12.23,18.144,18.717
				c1.787,2.029,1.591,5.125-0.44,6.911C1630.748,2577.851,1628.795,2578.129,1627.138,2577.476z"/>
			<path style="fill:#FFFFFF;" d="M1820.888,2728.747c-1.437-0.566-2.585-1.799-2.973-3.413c-1.528-6.367-3.299-12.736-5.265-18.936
				c-0.819-2.58,0.608-5.332,3.187-6.149c2.573-0.829,5.333,0.599,6.149,3.188c2.038,6.417,3.873,13.015,5.456,19.608
				c0.631,2.631-0.99,5.275-3.62,5.905C1822.806,2729.194,1821.79,2729.102,1820.888,2728.747z"/>
			<path style="fill:#FFFFFF;" d="M1811.109,2696.633c-1.251-0.493-2.293-1.496-2.801-2.853
				c-3.083-8.321-6.615-16.588-10.491-24.577c-1.18-2.434-0.166-5.365,2.268-6.547c2.433-1.177,5.366-0.169,6.544,2.27
				c4.015,8.275,7.669,16.836,10.865,25.447c0.94,2.539-0.353,5.354-2.889,6.297
				C1813.428,2697.107,1812.191,2697.059,1811.109,2696.633z"/>
			<path style="fill:#FFFFFF;" d="M1787.428,2647.824c-0.957-0.377-1.802-1.056-2.38-2.001c-6.067-9.926-12.823-19.536-20.08-28.56
				c-1.698-2.104-1.365-5.188,0.745-6.886c2.108-1.693,5.19-1.369,6.884,0.749c7.522,9.347,14.526,19.302,20.81,29.591
				c1.41,2.31,0.683,5.323-1.626,6.732C1790.417,2648.284,1788.808,2648.368,1787.428,2647.824z"/>
			<path style="fill:#FFFFFF;" d="M1948.155,2728.25c-1.255-0.495-2.303-1.504-2.804-2.87
				c-5.823-15.873-12.917-31.398-21.087-46.137c-1.312-2.365-0.456-5.348,1.911-6.656c2.364-1.315,5.343-0.456,6.658,1.906
				c8.413,15.181,15.716,31.171,21.712,47.514c0.932,2.54-0.371,5.352-2.91,6.283
				C1950.461,2728.724,1949.231,2728.675,1948.155,2728.25z"/>
			<g>
				<g>
					
						<linearGradient id="SVGID_00000021104302377151960420000014808713420865459374_" gradientUnits="userSpaceOnUse" x1="2415.3032" y1="1192.981" x2="1762.3003" y2="1967.1598" gradientTransform="matrix(0.9951 0.0991 -0.0991 0.9951 1025.296 -175.8394)">
						<stop  offset="0" style="stop-color:#FF928E"/>
						<stop  offset="1" style="stop-color:#FE7062"/>
					</linearGradient>
					<path style="fill:url(#SVGID_00000021104302377151960420000014808713420865459374_);" d="M1182.86,2791.029
						c26.841-94.688,182.17-88.396,268.576-76.251c86.407,12.145,619.736,160.142,619.736,160.142l-16.015,138.153
						c0,0-364.365,56.628-593.117,41.938c-132.725-8.523-222.368-30.903-259.882-74.643
						C1164.644,2936.629,1152.944,2896.563,1182.86,2791.029z"/>
				</g>
				<path style="fill:#7D97F4;" d="M1067.034,2827.134c-90.147-0.385-129.317-77.782-188.624-90.005
					c-6.568-1.354-12.946,5.797-11.712,12.093c1.708,8.712,4.981,16.674,9.62,23.6c-35.422-3.517-69.973-15.506-105.458-19.129
					c-17.989-1.836-45.323-4.819-60.363,7.656c-13.273,11.01-10.845,28.61,0.239,39.945c5.467,5.59,12.281,9.826,19.437,12.933
					c7.283,3.162,19.195,4.733,24.128,11.709c3.3,4.666,2.889,4.744-3.141,8.111c-4.182,2.335-8.927,3.956-13.482,5.372
					c-10.99,3.416-22.56,4.89-33.919,6.504c-25.628,3.643-103.959,16.875-78.272,59.635c5.596,9.316,29.781,20.798,28.597,31.717
					c-0.623,5.741-10.748,12.838-14.484,16.597c-6.143,6.18-12.026,12.695-14.699,21.176c-4.606,14.621,3.033,30.421,16.909,36.531
					c13.509,5.947,28.363,3.374,42.62,4.269c2.268,0.143,5.94-0.144,8.085,0.948c4.044,2.058,1.866-0.854,2.207,4.29
					c0.701,10.564-2.779,18.581,2.881,28.666c9.344,16.649,31.227,22.624,48.908,17.895c23.071-6.17,35.25-27.36,52.247-42.082
					c14.674-12.708,34.477-23.433,54.497-21.504c24.415,2.352,37.324,28.201,62.405,30.949c22.186,2.432,43.023-9.478,60.468-21.777
					c24.401-17.202,43.834,22.361,68.718-1.306c24.884-23.668-19.282-94.406,31.79-110.59c0,0,57.089-18.374,152.039-19.07
					c15.51-8.857,9.702-42.259,4.894-47.911C1219.161,2817.422,1157.182,2827.52,1067.034,2827.134z"/>
				<path style="fill:#FFFFFF;" d="M1446.474,2885.232c-1.614-0.636-2.838-2.108-3.068-3.948
					c-1.616-12.843-4.247-25.646-7.818-38.059c-0.749-2.599,0.753-5.312,3.353-6.063c2.599-0.735,5.314,0.759,6.062,3.352
					c3.712,12.899,6.443,26.208,8.12,39.551c0.338,2.684-1.564,5.133-4.247,5.469
					C1448.033,2885.642,1447.212,2885.523,1446.474,2885.232z"/>
				<path style="fill:#FFFFFF;" d="M1424.867,2809.869c-1.131-0.446-2.097-1.308-2.649-2.494
					c-9.032-19.483-20.482-37.521-34.029-53.619c-1.74-2.068-1.476-5.158,0.595-6.898c2.07-1.75,5.152-1.473,6.901,0.593
					c14.106,16.759,26.021,35.535,35.42,55.802c1.138,2.454,0.073,5.365-2.382,6.502
					C1427.458,2810.345,1426.071,2810.344,1424.867,2809.869z"/>
				<path style="fill:#FFFFFF;" d="M1366.856,2731.221c-0.521-0.205-1.014-0.504-1.458-0.899
					c-8.155-7.245-14.113-11.819-22.767-17.464c-2.266-1.479-2.902-4.516-1.423-6.782c1.478-2.261,4.51-2.888,6.777-1.425
					c9.102,5.943,15.363,10.746,23.92,18.349c2.021,1.796,2.205,4.89,0.406,6.915
					C1370.911,2731.494,1368.714,2731.953,1366.856,2731.221z"/>
				<path style="fill:#FFFFFF;" d="M1555.892,2860.087c-1.58-0.623-2.793-2.048-3.055-3.848
					c-4.922-33.646-17.396-66.047-36.079-93.695c-1.515-2.242-0.925-5.287,1.316-6.802c2.246-1.513,5.286-0.923,6.798,1.318
					c19.503,28.862,32.524,62.667,37.656,97.762c0.392,2.678-1.461,5.163-4.137,5.554
					C1557.515,2860.506,1556.661,2860.389,1555.892,2860.087z"/>
				<path style="fill:#FFFFFF;" d="M1507.417,2748.725c-0.756-0.298-1.449-0.786-1.999-1.463
					c-5.313-6.529-11.051-12.765-17.052-18.533c-1.949-1.878-2.011-4.976-0.134-6.929c1.873-1.948,4.977-1.992,6.924-0.136
					c6.285,6.049,12.294,12.579,17.86,19.417c1.705,2.097,1.39,5.182-0.707,6.89
					C1510.885,2749.128,1509.011,2749.353,1507.417,2748.725z"/>
				<path style="fill:#FFFFFF;" d="M1679.626,2859.827c-1.521-0.599-2.707-1.941-3.026-3.669
					c-4.045-21.906-11.339-42.877-21.676-62.33c-1.27-2.385-0.363-5.353,2.025-6.622c2.391-1.278,5.355-0.367,6.623,2.029
					c10.809,20.335,18.431,42.252,22.66,65.147c0.491,2.66-1.267,5.214-3.927,5.705
					C1681.37,2860.258,1680.449,2860.151,1679.626,2859.827z"/>
				<path style="fill:#FFFFFF;" d="M1650.02,2783.192c-1.301-0.513-2.373-1.579-2.853-3.004c-1.037-3.095-4.887-11.99-10.184-15.947
					c-2.169-1.619-2.614-4.69-0.996-6.854c1.617-2.164,4.703-2.587,6.854-0.996c8.871,6.622,13.431,20.133,13.62,20.704
					c0.852,2.562-0.534,5.33-3.099,6.183C1652.226,2783.658,1651.051,2783.598,1650.02,2783.192z"/>
				<path style="fill:#FFFFFF;" d="M1785.453,2856.547c-1.394-0.549-2.52-1.726-2.937-3.283c-1.406-5.204-3.024-10.44-4.812-15.564
					c-0.893-2.551,0.454-5.345,3.007-6.235c2.556-0.894,5.346,0.452,6.24,3.009c1.868,5.339,3.557,10.806,5.02,16.242
					c0.704,2.613-0.841,5.298-3.454,6.001C1787.462,2857.004,1786.395,2856.919,1785.453,2856.547z"/>
				<path style="fill:#FFFFFF;" d="M1776.56,2830.134c-1.201-0.473-2.216-1.418-2.742-2.709c-2.741-6.746-5.85-13.406-9.236-19.81
					c-1.266-2.389-0.353-5.354,2.035-6.618c2.392-1.268,5.358-0.361,6.62,2.038c3.542,6.69,6.792,13.652,9.656,20.698
					c1.02,2.507-0.188,5.366-2.694,6.385C1778.986,2830.608,1777.691,2830.58,1776.56,2830.134z"/>
				<path style="fill:#FFFFFF;" d="M1886.525,2848.059c-1.208-0.476-2.226-1.427-2.75-2.728
					c-4.652-11.573-16.787-19.455-16.908-19.534c-2.28-1.459-2.939-4.489-1.481-6.768c1.463-2.277,4.505-2.906,6.766-1.476
					c0.607,0.385,14.906,9.68,20.714,24.123c1.007,2.513-0.21,5.364-2.717,6.37
					C1888.938,2848.533,1887.649,2848.502,1886.525,2848.059z"/>
			</g>
		</g>
		<g>
			<path style="fill:#7D97F4;" d="M1791.561,2754.533c-3.177-6.956-105.517,341-105.517,341l142.812,21.538l133.145-180.341
				L1791.561,2754.533z"/>
			<path style="fill:#7D97F4;" d="M1479.632,2658.233c11.833,45.399,50.936,74.07,90.26,94.984
				c22.803,12.127,46.013,20.06,71.387,10.796c20.954-7.65,41.661-19.078,59.953-31.786c37.11-25.781,68.09-63.961,74.943-109.759
				c1.777-11.881,2.233-24.098,0.459-36.001c-0.241-1.618-0.443-3.585-0.833-5.29c3.699-1.328,9.34-4.205,9.626-4.352
				c14.528-7.489,22.507-21.03,24.241-35.979c3.09-3.661,4.103-9.421,0.024-13.938c-0.062-0.068-0.123-0.136-0.185-0.205
				c-0.172-1.246-0.377-2.492-0.631-3.736c-1.352-6.614-7.484-10.964-14.006-12.297c-18.943-20.31-39.15-39.318-65.013-50.845
				c-14.511-6.468-29.509-9.923-45.336-10.994c-15.714-1.063-31.646,0.275-47.243-2.232c-16.922-2.721-30.151-13.429-46.435-17.985
				c-12.283-3.437-25.957-2.352-37.725,2.488c-24.88,10.231-43.333,33.967-46.864,60.679c-3.076,23.269,2.53,45.948,12.738,66.588
				C1484.233,2576.043,1469.861,2620.747,1479.632,2658.233z"/>
			<path style="fill:#7D97F4;" d="M2037.959,3030.765c6.265,4.038,12.764,7.528,19.808,10.006
				c7.061,2.484,14.782,3.718,21.542,6.987c6.269,3.031,9.389,8.767,12.888,14.523c3.978,6.542,8.166,12.461,13.641,17.868
				c10.864,10.729,25.152,17.079,39.742,20.897c26.917,7.044,57.15,3.844,82.974-5.951c12.417-4.71,24.475-11.138,35.134-19.072
				c11.636-8.661,21.567-21.402,35.245-26.93c12.279-4.963,26.146-4.9,38.908-8.175c14.353-3.683,26.348-11.93,36.034-23.038
				c9.515-10.911,16.28-23.917,25.912-34.739c8.37-9.406,19.428-13.237,31.161-16.798c25.792-7.826,50.049-16.889,58.903-44.969
				c4.091-12.976,4.254-27.272,13.512-37.94c9.675-11.149,19.659-20.374,27.127-33.33c26.762-46.425,17.874-107.369-18.359-145.781
				c-2.199-2.332-5.16-3.475-8.27-3.691c-0.429-2.182-0.927-4.355-1.561-6.501c-7.156-24.211-26.302-43.909-49.471-53.349
				c-26.784-10.913-54.628-9.293-82.37-3.807c-6.783,1.341-14.148,2.906-20.98,1.037c-6.918-1.891-12.523-7.309-17.577-12.108
				c-10.657-10.117-20.623-20.629-34.985-25.292c-13.283-4.313-27.409-3.939-41.118-2.208c-16.572,2.092-33.077,4.906-49.594,7.396
				c-16.584,2.499-33.18,4.926-49.752,7.501c-14.044,2.182-28.455,4.908-41.341,11.12c-13.772,6.638-24.239,16.471-31.135,30.196
				c-3.644,7.252-5.879,15.835-11.094,22.174c-4.613,5.609-11.386,9.083-17.518,12.767c-25.686,15.429-44.039,38.899-51.585,68.058
				c-3.12,12.057-0.297,28.119-6.285,39.071c-3.631,6.642-10.959,11.185-16.017,16.708c-4.615,5.04-8.443,10.827-11.741,16.8
				c-15.292,27.696-9.987,56.955-1.142,85.654c8.988,29.166,19.564,58.997,37.585,83.957
				C2014.892,3011.866,2025.429,3022.689,2037.959,3030.765z"/>
			<path style="fill:#7D97F4;" d="M2202.08,2689.434c18.183,23.026,44.587,37.261,74.083,37.914
				c20.72,0.459,41.408-5.798,56.774-19.23c22.023,18.296,50.864,27.892,79.79,23.75c32.602-4.667,60.936-25.068,76.633-53.801
				c8.017-14.676,14.478-27.763,26.547-39.683c10.969-10.834,23.038-20.642,32.85-32.604c19.33-23.566,25.515-55.629,11.057-83.34
				c-11.397-21.843-33.128-35.696-56.842-37.846c5.34-54.273-28.355-108.356-84.248-120.642
				c-25.282-5.557-52.968-1.188-75.864,11.096c-31.552-6.696-64.816-3.405-88.552,21.488
				c-18.197,19.084-21.275,47.431-10.345,69.617c-22.539,8.355-41.596,25.905-53.522,46.851
				C2161.267,2564.241,2165.275,2642.828,2202.08,2689.434z"/>
			<path style="fill:#7D97F4;" d="M1681.877,2592.791c1.184,19.187,20.224,541.836,20.224,541.836l66.47-10.146l252.291-410.571
				l-113.396-77.465l-154.277,385.387l77.146-366.177L1681.877,2592.791z"/>
			<path style="fill:#7D97F4;" d="M1569.022,2960.371c13.487,9.109,28.968,17.087,45.413,18.697
				c8.564,0.838,17.192,0.126,25.372-2.634c4.365-1.473,8.406-3.674,12.309-6.101c4.115-2.558,8.795-7.359,13.574-8.492
				c8.287-1.964,18.609,1.953,27.352,1.041c7.614-0.794,15.362-2.97,22.281-6.239c16.173-7.639,29.525-20.49,37.213-36.701
				c3.844-8.106,5.174-16.623,6.344-25.404c1.229-9.225,9.525-10.049,15.986-15.716c15.566-13.656,19.484-35.486,19.084-55.221
				c-0.56-27.643-13.404-62.552-40.22-73.804c0.812-20.021-15.088-38.737-34.628-44.708c-7.886-2.409-16.157-3.456-24.542-3.495
				c-8.677-10.774-21.624-17.651-36.592-17.219c-16.243,0.469-31.16,10.415-39.104,24.285
				c-46.269-12.723-97.68,3.609-126.073,43.773c-15.379,21.755-24.536,49.736-21.253,76.514
				c2.683,21.882,16.484,41.608,36.864,47.253C1511.57,2911.348,1540.926,2941.395,1569.022,2960.371z"/>
			<g>
				<path style="fill:#7D97F4;" d="M1895.085,2944.382c26.882,20.75,66.696,32.236,94.492,19.981
					c27.454,17.8,45.222,11.654,76.465,16.706c57.77,9.343,97.92,6.831,130.449-30.512c29.962-34.397,17.679-102.514,37.375-119.32
					c19.696-16.806,98.408-45.042,126.059-62.654c62.719-39.948,91.978-104.842,86.235-178.658
					c-4.515-58.034-59.934-99.29-66.72-113.121c-6.785-13.83,31.372-105.911,22.603-153.75
					c-9.249-50.455-44.415-103.55-97.188-128.281c-26.128-12.244-58.113-14.146-85.351-13.841
					c-7.68,0.086-14.911,1.047-22.441,1.588c-6.365,0.457-7.484-1.443-11.354-6.562c-9.229-12.208-19.569-23.814-31.478-34.16
					c-47.812-41.537-106.448-61.761-164.389-53.341c-49.738,7.228-95.178,42.666-114.11,56.89
					c-18.933,14.224-58.184-17.175-111.174,12.417c-52.991,29.592-44.728,77.079-64.568,91.984
					c-106.255,35.058-128.119,122.302-125.559,177.766c3.207,69.486,41.042,86.031,47.17,96.598
					c6.908,22.123-21.475,50.519-30.377,67.207c-20.681,38.767-2.504,95.863,36.937,134.252
					c27.244,26.517,64.988,33.209,79.175,47.292c14.187,14.083,16.26,76.038,50.294,102.817
					c32.287,25.404,89.214,35.035,109.208,35.496C1886.832,2911.638,1882.933,2935.002,1895.085,2944.382z"/>
			</g>
			<path style="fill:#7D97F4;" d="M1782.569,3006.188c4.261,4.419,8.812,8.443,13.992,11.758c5.192,3.323,11.149,5.769,15.952,9.665
				c4.454,3.613,5.872,8.799,7.592,14.074c1.955,5.995,4.196,11.53,7.565,16.897c6.685,10.65,16.942,18.437,27.918,24.25
				c20.249,10.724,45.089,13.862,67.639,10.881c10.843-1.434,21.722-4.312,31.764-8.662c10.962-4.748,21.327-13.088,33.335-14.94
				c10.78-1.662,21.884,1.004,32.734,0.786c12.2-0.245,23.373-4.594,33.233-11.672c9.685-6.952,17.562-16.102,27.325-22.961
				c8.484-5.96,18.071-6.947,28.149-7.588c22.153-1.408,43.308-4.098,55.703-24.939c5.728-9.63,8.555-21.06,17.989-27.866
				c9.86-7.113,19.603-12.625,28.034-21.602c30.212-32.169,34.583-82.702,12.782-120.331c-1.323-2.284-3.481-3.759-5.933-4.519
				c0.068-1.83,0.079-3.666-0.025-5.506c-1.17-20.759-12.803-40.162-29.595-52.1c-19.413-13.801-42.04-17.754-65.315-18.59
				c-5.691-0.204-11.889-0.34-17.014-3.126c-5.189-2.821-8.66-8.222-11.807-13.022c-6.635-10.122-12.641-20.428-23.275-26.876
				c-9.835-5.963-21.229-8.328-32.546-9.527c-13.68-1.449-27.442-2.306-41.152-3.427c-13.766-1.125-27.529-2.31-41.3-3.371
				c-11.671-0.899-23.737-1.433-35.239,1.116c-12.293,2.724-22.539,8.631-30.656,18.333c-4.29,5.127-7.7,11.586-13.076,15.684
				c-4.756,3.626-10.841,5.134-16.452,6.93c-23.502,7.524-42.642,22.877-54.192,44.829c-4.776,9.077-5.542,22.486-12.409,30.136
				c-4.164,4.639-10.895,6.898-15.992,10.373c-4.651,3.169-8.811,7.087-12.581,11.252c-17.484,19.318-18.751,43.775-17.074,68.451
				c1.704,25.076,4.555,50.986,14.293,74.395C1767.642,2986.685,1774.047,2997.349,1782.569,3006.188z"/>
		</g>
		<g>
			
				<linearGradient id="SVGID_00000136407226796813802920000002880904383119767960_" gradientUnits="userSpaceOnUse" x1="2750.8521" y1="1860.1439" x2="2225.729" y2="2378.5354">
				<stop  offset="0" style="stop-color:#E1473D"/>
				<stop  offset="1" style="stop-color:#E9605A"/>
			</linearGradient>
			<path style="fill:url(#SVGID_00000136407226796813802920000002880904383119767960_);" d="M2129.611,2583.757
				c-75.049-124.91-185.604-76.201-185.604-76.201s-62.762-74.288-169.458-66.071c-106.696,8.217-165.814,71.995-165.814,71.995
				l200.501,602.849c76.508,30.334,220.893-25.807,256.227-130.729C2100.797,2880.678,2204.66,2708.667,2129.611,2583.757z"/>
			
				<linearGradient id="SVGID_00000157269116673220332840000012770121479032086700_" gradientUnits="userSpaceOnUse" x1="1183.3508" y1="2480.4578" x2="1183.3508" y2="3798.2947" gradientTransform="matrix(0.9974 -0.0726 0.0726 0.9974 261.3023 309.5557)">
				<stop  offset="0" style="stop-color:#E1473D"/>
				<stop  offset="1" style="stop-color:#E9605A"/>
			</linearGradient>
			<path style="fill:url(#SVGID_00000157269116673220332840000012770121479032086700_);" d="M1608.735,2513.48
				c0,0-125.464,9.695-158.256,78.673c-32.793,68.977-27.76,131.894,7.914,221.093c35.675,89.199,64.761,154.007,133.992,262.092
				c35.481,55.393,67.303,74.616,137.603,76.719c69.852-9.537,79.248-35.727,79.248-35.727s42.686-422.678-27.243-506.339
				C1706.588,2519.777,1608.735,2513.48,1608.735,2513.48z"/>
			
				<linearGradient id="SVGID_00000145775981697362845980000011320541853663093641_" gradientUnits="userSpaceOnUse" x1="1785.448" y1="2508.8201" x2="1987.4188" y2="2064.4854">
				<stop  offset="0" style="stop-color:#4F52FF"/>
				<stop  offset="1" style="stop-color:#4042E2"/>
			</linearGradient>
			<path style="fill:url(#SVGID_00000145775981697362845980000011320541853663093641_);" d="M1707.813,2533.725
				c78.332,19.434,135.609-29.615,128.044-4.722c-7.151,23.53-18.164,9.016-1.953,40.651c18.583,36.264-46.478,3.629-92.531,23.083
				S1659.498,2521.738,1707.813,2533.725z"/>
			
				<linearGradient id="SVGID_00000170994743709279267470000000066907284519408028_" gradientUnits="userSpaceOnUse" x1="1738.835" y1="1797.3512" x2="1728.7363" y2="2275.3486">
				<stop  offset="0" style="stop-color:#4F52FF"/>
				<stop  offset="1" style="stop-color:#4042E2"/>
			</linearGradient>
			<path style="fill:url(#SVGID_00000170994743709279267470000000066907284519408028_);" d="M1753.085,2547.081
				c0,0-40.538-151.33-80.796-169.491c-40.257-18.16,83.587-34.321,86.627-20.724c3.04,13.597,26.614,187.852,26.614,187.852
				S1774.904,2556.469,1753.085,2547.081z"/>
		</g>
		<g>
			
				<linearGradient id="SVGID_00000018916279216587558440000017157806094227064509_" gradientUnits="userSpaceOnUse" x1="2305.6799" y1="3328.5554" x2="2810.6074" y2="2217.717">
				<stop  offset="0" style="stop-color:#FEBBBA"/>
				<stop  offset="1" style="stop-color:#FF928E"/>
			</linearGradient>
			<path style="fill:url(#SVGID_00000018916279216587558440000017157806094227064509_);" d="M2346.663,2835.088l47.016,308.601
				c0,0-108.426,63.174-65.099,68.293c51.76,6.115,79.34,2.241,99.81-0.949c39.893-6.219,139.849,7.327,131.617-55.485
				c-2.002-15.282-11.445-26.474-10.347-42.505c1.247-18.21,80.91-192.418,11.059-277.955
				C2429.845,2825.025,2346.663,2835.088,2346.663,2835.088z"/>
			
				<linearGradient id="SVGID_00000163051074032246133030000006604566923940353676_" gradientUnits="userSpaceOnUse" x1="3305.0476" y1="2206.6799" x2="2793.3882" y2="3236.7292">
				<stop  offset="0" style="stop-color:#FEBBBA"/>
				<stop  offset="1" style="stop-color:#FF928E"/>
			</linearGradient>
			<path style="fill:url(#SVGID_00000163051074032246133030000006604566923940353676_);" d="M2995.066,2835.088l-47.016,308.601
				c0,0,108.426,63.174,65.099,68.293c-51.76,6.115-79.34,2.241-99.81-0.949c-39.893-6.219-139.849,7.327-131.617-55.485
				c2.002-15.282,11.443-26.474,10.346-42.505c-1.246-18.21-80.909-192.418-11.059-277.955
				C2911.884,2825.025,2995.066,2835.088,2995.066,2835.088z"/>
			
				<linearGradient id="SVGID_00000011718112005215778630000015211565178914620826_" gradientUnits="userSpaceOnUse" x1="2256.4868" y1="2703.4324" x2="3086.4573" y2="2703.4324">
				<stop  offset="0" style="stop-color:#09005D"/>
				<stop  offset="1" style="stop-color:#1A0F91"/>
			</linearGradient>
			<path style="fill:url(#SVGID_00000011718112005215778630000015211565178914620826_);" d="M2256.487,2551.636l58.347,289.061
				c1.7,8.422,9.627,14.532,18.864,14.532h260.985c9.362,0,17.375-6.275,18.925-14.838c6.793-37.517,25.893-133.491,44.092-137.048
				c18.982-3.708,70.148,105.557,86.192,140.969c2.992,6.607,9.974,10.916,17.7,10.916h240.073c8.974,0,16.75-5.776,18.722-13.896
				l66.071-272.086L2256.487,2551.636z"/>
			
				<linearGradient id="SVGID_00000127005777818415491710000012479006921143005090_" gradientUnits="userSpaceOnUse" x1="2316.9282" y1="2664.1411" x2="4087.6716" y2="425.6561">
				<stop  offset="0" style="stop-color:#4F52FF"/>
				<stop  offset="1" style="stop-color:#4042E2"/>
			</linearGradient>
			<path style="fill:url(#SVGID_00000127005777818415491710000012479006921143005090_);" d="M3115.886,1910.798l-52.351-35.47
				c-70.482-47.758-152.964-77.995-239.603-87.839l-138.849-15.775l-0.144-3.279l-14.356,1.633l-14.357-1.633l-0.142,3.279
				l-138.849,15.775c-86.639,9.844-169.122,40.081-239.604,87.839l-52.35,35.47c-50.421,34.164-74.061,92.897-60.112,149.349
				l47.083,190.536c0,0-77.872,283.01,76.812,330.666c23.064,7.104,273.004,3.116,381.518,1.025
				c108.514,2.091,358.454,6.08,381.518-1.025c154.683-47.656,76.812-330.666,76.812-330.666l47.082-190.536
				C3189.946,2003.695,3166.308,1944.962,3115.886,1910.798z"/>
			
				<linearGradient id="SVGID_00000139286094721520171370000010103527367511467424_" gradientUnits="userSpaceOnUse" x1="2683.071" y1="1716.1091" x2="2669.554" y2="1986.4492">
				<stop  offset="0" style="stop-color:#FEBBBA"/>
				<stop  offset="1" style="stop-color:#FF928E"/>
			</linearGradient>
			<path style="fill:url(#SVGID_00000139286094721520171370000010103527367511467424_);" d="M2438.887,1768.435
				c0,0,5.6,126.989,219.799,131.403s262.918-123.052,262.918-123.052L2438.887,1768.435z"/>
			
				<linearGradient id="SVGID_00000045614425762286231230000014306968021065749943_" gradientUnits="userSpaceOnUse" x1="2584.8127" y1="1102.5671" x2="2716.6467" y2="1929.061">
				<stop  offset="0" style="stop-color:#09005D"/>
				<stop  offset="1" style="stop-color:#1A0F91"/>
			</linearGradient>
			<path style="fill:url(#SVGID_00000045614425762286231230000014306968021065749943_);" d="M2933.768,1499.664
				c14.976-46.929-25.34-85.383-51.316-104.468c-11.461-8.422-20.182-19.383-25.417-32.044
				c-8.536-20.646-30.264-53.108-84.881-71.45c-56.189-18.867-111.087-0.672-141.539,13.621
				c-15.592,7.317-33.167,9.794-50.391,7.056c-22.496-3.575-58.509-5.295-103.636,6.332
				c-78.623,20.256-34.943,106.681-93.184,179.602c-58.24,72.922,28.979,112.084,28.979,112.084
				c2.771,120.185,514.105,33.759,536.473-8.102C2971.224,1560.432,2912.222,1567.175,2933.768,1499.664z"/>
			
				<linearGradient id="SVGID_00000181069244170223778090000015585172649047732867_" gradientUnits="userSpaceOnUse" x1="2368.2783" y1="1634.2819" x2="2466.3953" y2="1634.2819">
				<stop  offset="0" style="stop-color:#FEBBBA"/>
				<stop  offset="1" style="stop-color:#FF928E"/>
			</linearGradient>
			<path style="fill:url(#SVGID_00000181069244170223778090000015585172649047732867_);" d="M2466.395,1610.397
				c0,0-32.032-51.315-69.886-28.358c-37.857,22.956-43.694,87.465,20.377,106.525
				C2480.956,1707.626,2460.572,1652.26,2466.395,1610.397z"/>
			
				<linearGradient id="SVGID_00000030475212010114584570000018202196299651734926_" gradientUnits="userSpaceOnUse" x1="2884.2556" y1="1624.2228" x2="2958.9531" y2="1624.2228">
				<stop  offset="0" style="stop-color:#FEBBBA"/>
				<stop  offset="1" style="stop-color:#FF928E"/>
			</linearGradient>
			<path style="fill:url(#SVGID_00000030475212010114584570000018202196299651734926_);" d="M2884.265,1594.193
				c0,0,40.368-57.736,64.591-18.064c24.225,39.671,1.457,104.49-32.296,109.891
				C2882.809,1691.421,2884.265,1594.193,2884.265,1594.193z"/>
			
				<linearGradient id="SVGID_00000178205041273024243620000013906864341964616363_" gradientUnits="userSpaceOnUse" x1="2676.2954" y1="1693.1813" x2="2613.3013" y2="1063.2401">
				<stop  offset="0" style="stop-color:#FEBBBA"/>
				<stop  offset="1" style="stop-color:#FF928E"/>
			</linearGradient>
			<path style="fill:url(#SVGID_00000178205041273024243620000013906864341964616363_);" d="M2460.572,1494.263
				c0,0-2.912,72.922-29.12,145.843c-26.208,72.922-52.416,175.552,119.391,210.662c171.806,35.11,183.455,21.606,247.518,0
				c64.063-21.607,165.983-51.316,148.511-124.237s-87.359-186.355-90.271-232.268
				C2853.688,1448.35,2600.347,1345.719,2460.572,1494.263z"/>
			
				<linearGradient id="SVGID_00000122712450831508476250000016437869771940816318_" gradientUnits="userSpaceOnUse" x1="2607.8147" y1="1096.4294" x2="2740.9089" y2="1930.8236">
				<stop  offset="0" style="stop-color:#09005D"/>
				<stop  offset="1" style="stop-color:#1A0F91"/>
			</linearGradient>
			<path style="fill:url(#SVGID_00000122712450831508476250000016437869771940816318_);" d="M2460.572,1494.263
				c0,0,113.488,30.272,179.944,0c81.374,30.107,226.492,48.976,237.342,23.818c10.851-25.158-2.711-80.505-40.687-94.342
				C2799.195,1409.903,2519.327,1322.014,2460.572,1494.263z"/>
			<g>
				<path style="fill:#7D97F4;" d="M2368.277,2097.84c-2.994,0-5.42-1.767-5.425-4.542c-0.08-74.619-34.271-124.27-34.616-124.767
					c-1.627-2.333-0.911-5.328,1.6-6.836c2.51-1.513,5.875-0.789,7.501,1.539c1.483,2.119,36.285,52.275,36.364,130.023
					c0.006,2.781-2.42,4.583-5.419,4.583H2368.277z"/>
			</g>
			<g>
				<path style="fill:#7D97F4;" d="M2983.785,2097.84c2.994,0,5.419-1.767,5.426-4.542c0.078-74.619,34.271-124.27,34.615-124.767
					c1.627-2.333,0.911-5.328-1.599-6.836c-2.511-1.513-5.876-0.789-7.502,1.539c-1.483,2.119-36.284,52.275-36.364,130.023
					c-0.005,2.781,2.42,4.583,5.42,4.583H2983.785z"/>
			</g>
			<g>
				
					<linearGradient id="SVGID_00000017503768627508727280000004941937540712176020_" gradientUnits="userSpaceOnUse" x1="2756.887" y1="2035.0845" x2="3692.1799" y2="356.6804">
					<stop  offset="0" style="stop-color:#E1473D"/>
					<stop  offset="1" style="stop-color:#E9605A"/>
				</linearGradient>
				<path style="fill:url(#SVGID_00000017503768627508727280000004941937540712176020_);" d="M2907.36,2119.094
					c0,111.972-90.771,202.743-202.743,202.743c-111.971,0-202.743-90.771-202.743-202.743c0-111.973,95.049-88.875,203.928-115.006
					C2824.366,1975.633,2907.36,2007.122,2907.36,2119.094z"/>
				<path style="fill:#91B3FA;" d="M2691.576,2046.77c0,0-37.941-80.622,30.825-144.647c46.698-43.478,83.556-72.74,102.402-87.043
					c6.873-5.217,16.861-1.844,19.104,6.487C2856.864,1869.674,2876.607,2007.816,2691.576,2046.77z"/>
				<path style="fill:#7D97F4;" d="M2684.727,2048.982c-7.572-22.443-20.73-57.781-35.938-82.761
					c-2.591-4.256-1.695-9.761,2.056-13.044l2.774-2.428c5.002-4.377,12.797-2.963,15.893,2.918
					c9.463,17.976,25.986,55.149,24.918,93.913C2694.277,2053.109,2686.496,2054.223,2684.727,2048.982z"/>
				<path style="opacity:0.71;fill:#FFFFFF;" d="M2703.896,2031.686l-3.301-0.661c16.532-82.669,101.748-147.389,102.606-148.033
					l2.018,2.692C2804.371,1886.323,2720.174,1950.293,2703.896,2031.686z"/>
				
					<linearGradient id="SVGID_00000081622500510860626810000002877795774113948846_" gradientUnits="userSpaceOnUse" x1="2527.698" y1="2159.3733" x2="2619.1101" y2="2159.3733">
					<stop  offset="0" style="stop-color:#FEBBBA"/>
					<stop  offset="1" style="stop-color:#FF928E"/>
				</linearGradient>
				<path style="fill:url(#SVGID_00000081622500510860626810000002877795774113948846_);" d="M2617.486,2276.341
					c-52.639-28.938-87.856-86.431-89.713-146.468c-0.684-22.229,3.304-41.066,11.851-55.994
					c10.457-18.259,28.363-30.319,46.729-31.472l0.21,3.359c-17.249,1.083-34.115,12.497-44.02,29.786
					c-8.231,14.378-12.071,32.62-11.404,54.215c1.821,58.872,36.351,115.247,87.971,143.625L2617.486,2276.341z"/>
				
					<linearGradient id="SVGID_00000024703784310202265950000008247702473751685052_" gradientUnits="userSpaceOnUse" x1="2623.9229" y1="2064.0662" x2="2768.7668" y2="2064.0662">
					<stop  offset="0" style="stop-color:#FEBBBA"/>
					<stop  offset="1" style="stop-color:#FF928E"/>
				</linearGradient>
				<path style="fill:url(#SVGID_00000024703784310202265950000008247702473751685052_);" d="M2700.004,2079.332
					c-8.166,0-16.298-1.047-24.132-3.217c-5.674-1.573-11.318-3.705-16.771-5.766c-11.834-4.469-23.004-8.697-34.973-7.969
					l-0.204-3.36c12.702-0.768,24.72,3.779,36.367,8.179c5.385,2.035,10.953,4.139,16.482,5.671
					c31.038,8.598,67.041-1.077,89.588-24.071l2.406,2.357C2751.075,2069.198,2725.395,2079.331,2700.004,2079.332z"/>
			</g>
			<g>
				
					<linearGradient id="SVGID_00000145770026527283171240000017650161198144327577_" gradientUnits="userSpaceOnUse" x1="2513.062" y1="2140.6211" x2="2384.938" y2="2382.9429">
					<stop  offset="0" style="stop-color:#FEBBBA"/>
					<stop  offset="1" style="stop-color:#FF928E"/>
				</linearGradient>
				<path style="fill:url(#SVGID_00000145770026527283171240000017650161198144327577_);" d="M2200.731,2247.61
					c0,0,108.86,167.343,290.598,109.481c141.048-47.8,246.835-64.695,203.436-100.274c0,0-43.399-60.736-77.306-50.672
					c0,0-24.412-13.837-61.031,23.899c0,0-104.883,18.242-115.732,8.18c-10.851-10.063-47.017-95.812-94.033-131.032
					C2243.589,2167.569,2194.045,2224.328,2200.731,2247.61z"/>
				
					<linearGradient id="SVGID_00000166633766988994153380000007792649240549721487_" gradientUnits="userSpaceOnUse" x1="2209.0518" y1="2702.6719" x2="2409.512" y2="-351.024">
					<stop  offset="0" style="stop-color:#4F52FF"/>
					<stop  offset="1" style="stop-color:#4042E2"/>
				</linearGradient>
				<path style="fill:url(#SVGID_00000166633766988994153380000007792649240549721487_);" d="M2225.284,1910.798
					c0,0-225.818,176.982-37.753,346.019l195.299-136.209C2382.83,2120.608,2331.753,1841.871,2225.284,1910.798z"/>
			</g>
			<g>
				
					<linearGradient id="SVGID_00000018231578953226169280000015041732781283437985_" gradientUnits="userSpaceOnUse" x1="-1188.0129" y1="2140.6211" x2="-1316.137" y2="2382.9429" gradientTransform="matrix(-1 0 0 1 1658.7634 0)">
					<stop  offset="0" style="stop-color:#FEBBBA"/>
					<stop  offset="1" style="stop-color:#FF928E"/>
				</linearGradient>
				<path style="fill:url(#SVGID_00000018231578953226169280000015041732781283437985_);" d="M3159.108,2247.61
					c0,0-108.862,167.343-290.598,109.481c-141.05-47.8-246.837-64.695-203.436-100.274c0,0,43.399-60.736,77.305-50.672
					c0,0,24.412-13.837,61.031,23.899c0,0,104.883,18.242,115.733,8.18c10.849-10.063,47.016-95.812,94.033-131.032
					C3116.25,2167.569,3165.792,2224.328,3159.108,2247.61z"/>
				
					<linearGradient id="SVGID_00000079479665445689240260000016451843385350756487_" gradientUnits="userSpaceOnUse" x1="3069.9824" y1="2759.1897" x2="3270.4426" y2="-294.5045">
					<stop  offset="0" style="stop-color:#4F52FF"/>
					<stop  offset="1" style="stop-color:#4042E2"/>
				</linearGradient>
				<path style="fill:url(#SVGID_00000079479665445689240260000016451843385350756487_);" d="M3134.554,1910.798
					c0,0,225.82,176.982,37.753,346.019l-195.298-136.209C2977.009,2120.608,3028.086,1841.871,3134.554,1910.798z"/>
			</g>
			<path style="fill:#FFFFFF;" d="M2580.354,3006.467c-63.53,16.668-136.509,11.653-205.902,11.018l19.227,126.203
				c0,0-108.425,63.175-65.099,68.294c51.761,6.114,79.341,2.241,99.81-0.949c39.893-6.219,139.85,7.326,131.618-55.486
				c-2.001-15.281-11.444-26.474-10.348-42.505C2550.257,3104.323,2568.821,3059.846,2580.354,3006.467z"/>
			
				<linearGradient id="SVGID_00000062908123398739693050000010386418792417644715_" gradientUnits="userSpaceOnUse" x1="2318.3579" y1="3176.1099" x2="2560.4866" y2="3176.1099">
				<stop  offset="0" style="stop-color:#09005D"/>
				<stop  offset="1" style="stop-color:#1A0F91"/>
			</linearGradient>
			<path style="fill:url(#SVGID_00000062908123398739693050000010386418792417644715_);" d="M2392.661,3137.008l1.018,6.68
				c0,0-108.425,63.175-65.099,68.294c51.761,6.114,79.341,2.241,99.81-0.949c39.893-6.219,139.85,7.326,131.618-55.486
				c-0.439-3.354-1.248-6.506-2.214-9.561C2505.443,3154.419,2447.781,3146.196,2392.661,3137.008z"/>
			<path style="fill:#FFFFFF;" d="M2763.893,3017.539c11.527,48.358,27.621,87.397,28.175,95.503
				c1.098,16.031-8.343,27.224-10.346,42.505c-8.232,62.812,91.725,49.267,131.618,55.486c20.47,3.191,48.048,7.064,99.81,0.949
				c43.327-5.119-65.099-68.294-65.099-68.294l17.682-116.058C2901.832,3037.733,2831.55,3024.273,2763.893,3017.539z"/>
			
				<linearGradient id="SVGID_00000098205635914387347430000012875323495355259319_" gradientUnits="userSpaceOnUse" x1="2781.2424" y1="3179.4827" x2="3023.3721" y2="3179.4827">
				<stop  offset="0" style="stop-color:#09005D"/>
				<stop  offset="1" style="stop-color:#1A0F91"/>
			</linearGradient>
			<path style="fill:url(#SVGID_00000098205635914387347430000012875323495355259319_);" d="M2948.161,3143.754
				c-54.364,10.284-109.454,11.579-164.183,2.099c-0.985,3.096-1.809,6.291-2.256,9.694c-8.232,62.812,91.725,49.267,131.618,55.486
				c20.47,3.191,48.048,7.064,99.81,0.949C3055.704,3206.954,2951.881,3145.93,2948.161,3143.754z"/>
			<path style="fill:#91B3FA;" d="M2469.79,3053.316c-29.688,0-58.705-2.58-91.2-8.667l-2.059-13.514
				c72.188,13.522,144.118,10.917,200.915-6.341l-5.158,14.261C2538.878,3049.125,2508.006,3053.316,2469.79,3053.316z"/>
			<path style="fill:#91B3FA;" d="M2901.22,3060.515c-40.789,0-83.496-8.127-128.421-16.553l-2.107-0.445l-4.115-15.176l8.687,2.485
				c68.324,12.817,132.552,24.924,188.096,7.961l-1.507,14.296C2940.841,3059.501,2923.975,3060.515,2901.22,3060.515z"/>
		</g>
	</g>
</g>
</svg>
